<?xml version="1.0" encoding="utf-8"?>
<!-- Generator: Adobe Illustrator 20.0.0, SVG Export Plug-In . SVG Version: 6.00 Build 0)  -->
<svg version="1.1" id="Capa_1" xmlns="http://www.w3.org/2000/svg" xmlns:xlink="http://www.w3.org/1999/xlink" x="0px" y="0px"
	 viewBox="0 0 123 123" style="enable-background:new 0 0 123 123;" xml:space="preserve">
<style type="text/css">
	.st0{fill:#FFFFFF;}
</style>
<g>
	<path class="st0" d="M97.2,37c2.8,1.3,5.9,2.7,5.9,2.8c0.5,0.2,0.9,0.3,1.4,0.3c1.2,0,2.4-0.7,3-1.9c0.8-1.7,0.1-3.6-1.6-4.4
		c-0.1-0.1-1.3-0.6-2.9-1.4C101.8,34.6,99.7,36.3,97.2,37z"/>
	<g>
		<path class="st0" d="M50.8,36.7L49.4,38l-1.9-1.8c-0.4-0.1-0.8-0.1-1.2-0.3c-0.8,0.4-1.7,0.8-2.7,1.4c0.1-0.4,0.1-0.8,0-1.2
			c0.4-0.2,0.8-0.5,1.3-0.7c-2.2-1-4-2.8-5-5c-0.6,0.4-1.2,0.7-1.7,1.1c-0.8-0.5-1.6-0.9-2.2-1.2c-1,2.2-2.8,4-5,5
			c1.8,0.9,6.2,3.3,7.4,4.2c0.3,0.2,0.6,0.3,0.8,0.4v17.7c0,1.5,0.2,3,0.7,4.3c0,0.1,0,0.3,0,0.4v4l0,0c0,0.1,0,0.1,0,0.2v34.9
			c0,2.4,1.9,4.3,4.3,4.3s4.3-1.9,4.3-4.3V66.5c0-0.1,0-0.1,0-0.2h0.6c0,0.1,0,0.1,0,0.2v34.9c0,2.4,1.9,4.3,4.3,4.3l0,0
			c2.4,0,4.3-1.9,4.3-4.3V66.5c0-0.1,0-0.1,0-0.2l0,0v-4.5c0,0,0.8-1,0.8-4.7c0-2,0.2-9.4,0.2-9.4v-8.1l-6.2-3.4L50.8,36.7z"/>
		<path class="st0" d="M28.5,36.5L26.7,38l-1.4-1.3c-3.1,1.4-6.9,3.2-7,3.2c-0.5,0.3-1.1,0.4-1.7,0.4c-0.7,0-1.3-0.2-1.9-0.5l0,0
			C11,36.9,8,31.9,6.9,29.7c-0.9-1.8-3-2.6-4.8-1.7s-2.6,3.1-1.7,4.9c0.6,1.3,6.5,13,15.4,15.8c0.5,0.2,1,0.3,1.5,0.4
			c0.1,2.2,0.2,6.6,0.2,8c0,3.7,0.8,4.7,0.8,4.7v4.5h0.1c0,0.1,0,0.1,0,0.2v34.9c0,2.4,1.9,4.3,4.3,4.3s4.3-1.9,4.3-4.3V66.5
			c0-0.1,0-0.1,0-0.2h0.6c0,0.1,0,0.1,0,0.2v34.9c0,2.4,1.9,4.3,4.3,4.3s4.3-1.9,4.3-4.3V66.5c0-0.1,0-0.1,0-0.2l0,0v-4
			c0-0.1,0-0.3,0-0.4c0.5-1.3,0.7-2.8,0.7-4.3v-18c-1.5,0.1-6.2-3.3-6.8-3.5C29.7,36.2,28.9,36.4,28.5,36.5z"/>
		<path class="st0" d="M16.4,39.1c0.5,0,1-0.1,1.4-0.3c0,0,3.1-1.5,6-2.8c-2.6-0.7-4.7-2.4-6.1-4.6c-1.5,0.7-2.6,1.2-2.7,1.3
			c-1.7,0.8-2.4,2.8-1.6,4.5C13.9,38.4,15.1,39.1,16.4,39.1z"/>
		<circle class="st0" cx="49.4" cy="26.2" r="9.4"/>
		<circle class="st0" cx="26.8" cy="26.2" r="9.4"/>
		<path class="st0" d="M73.8,37.1l-1.4,1.3l-1.9-1.8c-0.4-0.1-0.8-0.1-1.2-0.3c-0.8,0.4-1.7,0.8-2.7,1.4c0.1-0.4,0.1-0.8,0-1.2
			c0.4-0.2,0.8-0.5,1.3-0.7c-2.2-1-4-2.8-5-5c-0.6,0.4-1.2,0.7-1.7,1.1c-0.8-0.5-1.6-0.9-2.2-1.2c-1,2.2-2.8,4-5,5
			c1.8,0.9,6.2,3.3,7.4,4.2c0.3,0.2,0.6,0.3,0.8,0.4V58c0,1.5,0.2,3,0.7,4.3c0,0.1,0,0.3,0,0.4v4l0,0c0,0.1,0,0.1,0,0.2v34.9
			c0,2.4,1.9,4.3,4.3,4.3s4.3-1.9,4.3-4.3V66.9c0-0.1,0-0.1,0-0.2h0.6c0,0.1,0,0.1,0,0.2v34.9c0,2.4,1.9,4.3,4.3,4.3
			s4.3-1.9,4.3-4.3V66.9c0-0.1,0-0.1,0-0.2h0.1v-4.5c0,0,0.8-1,0.8-4.7c0-2,0.2-9.4,0.2-9.4V40l-6.2-3.4L73.8,37.1z"/>
		<circle class="st0" cx="72.4" cy="26.5" r="9.4"/>
		<circle class="st0" cx="95.2" cy="26.7" r="9.4"/>
		<path class="st0" d="M120.9,27.7c-1.8-0.9-4-0.1-4.9,1.7c-1.2,2.4-4.7,8.2-8.8,10.9c-0.6,0.3-1.2,0.5-1.9,0.5
			c-0.6,0-1.2-0.1-1.7-0.4c-0.1,0-3.8-1.8-7-3.2l-1.4,1.3l-1.9-1.8c-0.4-0.1-0.8-0.1-1.2-0.3c-0.8,0.4-1.7,0.8-2.7,1.4
			c0.1-0.4,0.1-0.8,0-1.2c0.4-0.2,0.8-0.5,1.3-0.7c-2.2-1-4-2.8-5.1-5c-0.6,0.4-1.2,0.7-1.7,1.1c-0.8-0.5-1.6-0.9-2.2-1.2
			c-1,2.2-2.8,4-5,5c1.8,0.9,6.2,3.3,7.4,4.2c0.3,0.2,0.6,0.3,0.8,0.4v17.7c0,1.5,0.2,3,0.7,4.3c0,0.1,0,0.3,0,0.4v4l0,0
			c0,0.1,0,0.1,0,0.2v34.9c0,2.4,1.9,4.3,4.3,4.3s4.3-1.9,4.3-4.3V67c0-0.1,0-0.1,0-0.2H95c0,0.1,0,0.1,0,0.2v34.9
			c0,2.4,1.9,4.3,4.3,4.3l0,0c2.4,0,4.3-1.9,4.3-4.3V67c0-0.1,0-0.1,0-0.2h0.1v-4.5c0,0,0.8-1,0.8-4.7c0-1.6,0.1-6.8,0.2-8.7
			c0.4,0,0.9-0.1,1.3-0.2l0,0l0,0c0.4-0.1,0.8-0.2,1.3-0.3c8.9-2.8,14.8-14.5,15.4-15.8C123.5,30.8,122.7,28.6,120.9,27.7z"/>
	</g>
</g>
</svg>
