<?xml version="1.0" encoding="utf-8"?>
<!-- Generator: Adobe Illustrator 20.0.0, SVG Export Plug-In . SVG Version: 6.00 Build 0)  -->
<svg version="1.1" id="Capa_1" xmlns="http://www.w3.org/2000/svg" xmlns:xlink="http://www.w3.org/1999/xlink" x="0px" y="0px"
	 viewBox="0 0 124.9 124.9" style="enable-background:new 0 0 124.9 124.9;" xml:space="preserve">
<style type="text/css">
	.st0{fill:#FFFFFF;}
</style>
<g>
	<g>
		<circle class="st0" cx="62.8" cy="16.3" r="12.7"/>
		<path class="st0" d="M96,0.8c-2.3-1.5-5.3-0.8-6.8,1.4L70.1,31.5c-1.3-0.8-2.7-1.4-4.1-1.7L62.8,33l-3.1-3.2l0,0
			c-1.7,0.4-3.3,1.1-4.8,2.1L35.7,2.2c-1.5-2.3-4.5-2.9-6.8-1.4S26,5.3,27.5,7.6l21.4,32.8c0.3,0.4,0.6,0.8,1,1.1v27.2
			c0,1.3,0.3,2.6,0.7,3.7c0,0.3-0.1,0.5-0.1,0.8V119c0,3.2,2.6,5.8,5.8,5.8l0,0c3.2,0,5.8-2.6,5.8-5.8V79.9c0.2,0,0.5,0,0.7,0h0.1
			v38.8c0,3.2,2.6,5.8,5.8,5.8c3.2,0,5.8-2.6,5.8-5.8V73.4c0.8-1.4,1.2-3,1.2-4.8v-28l0,0c0.1-0.1,0.1-0.2,0.2-0.3L97.4,7.6
			C98.9,5.3,98.3,2.3,96,0.8z"/>
	</g>
</g>
</svg>
