<?xml version="1.0" encoding="utf-8"?>
<!-- Generator: Adobe Illustrator 20.0.0, SVG Export Plug-In . SVG Version: 6.00 Build 0)  -->
<svg version="1.1" id="Capa_1" xmlns="http://www.w3.org/2000/svg" xmlns:xlink="http://www.w3.org/1999/xlink" x="0px" y="0px"
	 viewBox="0 0 123 123" style="enable-background:new 0 0 123 123;" xml:space="preserve">
<style type="text/css">
	.st0{fill:#FFFFFF;}
</style>
<g>
	<path class="st0" d="M91.3,31.4c3.5,1.6,7.2,3.4,7.3,3.4c0.6,0.3,1.2,0.4,1.7,0.4c1.5,0,3-0.9,3.7-2.3c1-2,0.1-4.5-1.9-5.4
		c-0.2-0.1-1.6-0.8-3.6-1.7C96.9,28.4,94.3,30.5,91.3,31.4z"/>
	<path class="st0" d="M35.1,30.8l-2.3,1.8L31,30.9c-3.9,1.8-8.5,3.9-8.6,4c-0.7,0.3-1.4,0.5-2.1,0.5c-0.8,0-1.6-0.2-2.3-0.6l0,0
		c-4.5-3.6-8.2-9.8-9.5-12.4c-1.1-2.2-3.8-3.2-6-2.1s-3.2,3.8-2.1,6c0.8,1.6,8,16,19,19.4c0.6,0.2,1.3,0.3,1.9,0.5
		c0.1,2.8,0.2,8.1,0.2,9.9c0,4.5,0.9,5.8,0.9,5.8v5.5h0.1c0,0.1,0,0.1,0,0.2v42.9c0,2.9,2.4,5.3,5.3,5.3s5.3-2.4,5.3-5.3V67.6
		c0-0.1,0-0.1,0-0.2h0.8c0,0.1,0,0.1,0,0.2v42.9c0,2.9,2.4,5.3,5.3,5.3c2.9,0,5.3-2.4,5.3-5.3V67.6c0-0.1,0-0.1,0-0.2l0,0v-4.9
		c0-0.2,0-0.4,0-0.5c0.6-1.6,0.9-3.4,0.9-5.3V34.6c-1.9,0.2-7.6-4-8.3-4.3C36.5,30.4,35.6,30.7,35.1,30.8z"/>
	<path class="st0" d="M20.2,34c0.6,0,1.2-0.1,1.8-0.4c0.1,0,3.8-1.8,7.3-3.4c-3.2-0.9-5.8-2.9-7.5-5.7c-1.8,0.9-3.2,1.5-3.4,1.6
		c-2.1,1-3,3.5-2,5.5C17.1,33.1,18.6,34,20.2,34z"/>
	<circle class="st0" cx="32.9" cy="18.1" r="11.5"/>
	<path class="st0" d="M62.5,31.4L60.8,33l-2.3-2.2c-0.5-0.1-1-0.2-1.4-0.3c-1,0.4-2.1,1-3.3,1.7c0.1-0.5,0.1-1,0-1.5
		c0.5-0.3,1-0.6,1.6-0.9c-2.7-1.2-4.9-3.4-6.2-6.1c-0.7,0.4-1.4,0.9-2.1,1.3c-1-0.6-1.9-1.1-2.7-1.5c-1.3,2.7-3.4,4.9-6.1,6.2
		c2.2,1.1,7.6,4.1,9.1,5.2c0.3,0.2,0.7,0.4,1,0.5v21.7c0,1.9,0.3,3.6,0.9,5.3c0,0.2,0,0.3,0,0.5v4.9l0,0c0,0.1,0,0.1,0,0.2v42.9
		c0,2.9,2.4,5.3,5.3,5.3c2.9,0,5.3-2.4,5.3-5.3V68c0-0.1,0-0.1,0-0.2h0.8c0,0.1,0,0.1,0,0.2v42.9c0,2.9,2.4,5.3,5.3,5.3
		c2.9,0,5.3-2.4,5.3-5.3V68c0-0.1,0-0.1,0-0.2h0.1v-5.5c0,0,0.9-1.3,0.9-5.8c0-2.4,0.2-11.6,0.2-11.6v-10c-0.1,0-7.6-4.2-7.6-4.2
		L62.5,31.4z"/>
	<circle class="st0" cx="60.8" cy="18.5" r="11.5"/>
	<circle class="st0" cx="88.9" cy="18.6" r="11.5"/>
	<path class="st0" d="M120.5,20c-2.2-1.1-4.9-0.2-6,2.1c-1.4,2.9-5.8,10.1-10.8,13.4c-0.7,0.4-1.5,0.6-2.3,0.6
		c-0.7,0-1.5-0.2-2.1-0.5c-0.1,0-4.7-2.2-8.6-4l-1.8,1.6L86.5,31c-0.5-0.1-1-0.2-1.4-0.3c-1,0.4-2.1,1-3.3,1.7c0.1-0.5,0.1-1,0-1.5
		c0.5-0.3,1-0.6,1.6-0.9c-2.7-1.2-4.9-3.4-6.2-6.1c-0.7,0.4-1.4,0.9-2.1,1.3c-1-0.6-1.9-1.1-2.7-1.5c-1.3,2.7-3.4,4.9-6.1,6.2
		c2.2,1.1,7.6,4.1,9.1,5.2c0.3,0.2,0.7,0.4,1,0.5v21.7c0,1.9,0.3,3.6,0.9,5.3c0,0.2,0,0.3,0,0.5V68l0,0c0,0.1,0,0.1,0,0.2v42.9
		c0,2.9,2.4,5.3,5.3,5.3s5.3-2.4,5.3-5.3V68.2c0-0.1,0-0.1,0-0.2h0.8c0,0.1,0,0.1,0,0.2v42.9c0,2.9,2.4,5.3,5.3,5.3l0,0
		c2.9,0,5.3-2.4,5.3-5.3V68.2c0-0.1,0-0.1,0-0.2h0.1v-5.5c0,0,0.9-1.3,0.9-5.8c0-2,0.2-8.3,0.2-10.7c0.5-0.1,1.1-0.1,1.6-0.2l0,0
		l0,0c0.5-0.1,1-0.2,1.5-0.4c10.9-3.4,18.2-17.8,19-19.4C123.6,23.7,122.7,21.1,120.5,20z"/>
</g>
</svg>
