<?xml version="1.0" encoding="utf-8"?>
<!-- Generator: Adobe Illustrator 20.0.0, SVG Export Plug-In . SVG Version: 6.00 Build 0)  -->
<svg version="1.1" id="Capa_1" xmlns="http://www.w3.org/2000/svg" xmlns:xlink="http://www.w3.org/1999/xlink" x="0px" y="0px"
	 viewBox="0 0 123 123" style="enable-background:new 0 0 123 123;" xml:space="preserve">
<style type="text/css">
	.st0{fill:#FFFFFF;}
</style>
<g>
	<path class="st0" d="M79.1,27.8c3.9,1.8,8.1,3.8,8.1,3.8c0.6,0.3,1.3,0.4,1.9,0.4c1.7,0,3.3-1,4.1-2.6c1.1-2.3,0.1-5-2.2-6.1
		c-0.2-0.1-1.8-0.9-4-1.9C85.4,24.5,82.6,26.8,79.1,27.8z"/>
	<path class="st0" d="M47.6,27.1l-2.6,2l-2-1.8c-4.3,2-9.5,4.4-9.6,4.5c-0.8,0.4-1.6,0.5-2.4,0.5c-0.9,0-1.8-0.2-2.6-0.7l0,0
		c-5-4-9.2-10.9-10.6-13.9c-1.2-2.5-4.2-3.5-6.7-2.3s-3.5,4.2-2.3,6.7c0.9,1.8,9,17.9,21.2,21.7c0.7,0.2,1.4,0.4,2.1,0.5
		c0.1,3.1,0.2,9,0.2,11c0,5.1,1,6.5,1,6.5V68h0.1c0,0.1,0,0.2,0,0.2v48c0,3.3,2.7,5.9,5.9,5.9c3.3,0,5.9-2.7,5.9-5.9v-48
		c0-0.1,0-0.2,0-0.2h0.9c0,0.1,0,0.2,0,0.2v48c0,3.3,2.7,5.9,5.9,5.9c3.3,0,5.9-2.7,5.9-5.9v-48c0-0.1,0-0.2,0-0.2l0,0v-5.5
		c0-0.2,0-0.4,0-0.6c0.6-1.8,1-3.8,1-5.9V31.4c-2.1,0.2-8.5-4.5-9.3-4.8C49.2,26.7,48.2,27,47.6,27.1z"/>
	<path class="st0" d="M30.9,30.7c0.7,0,1.3-0.1,2-0.4c0.1,0,4.2-2,8.2-3.8c-3.5-1-6.5-3.3-8.4-6.4c-2.1,1-3.6,1.7-3.8,1.8
		c-2.3,1.1-3.3,3.9-2.2,6.2C27.5,29.7,29.2,30.7,30.9,30.7z"/>
	<circle class="st0" cx="45.2" cy="12.9" r="12.9"/>
	<circle class="st0" cx="76.5" cy="13.6" r="12.9"/>
	<path class="st0" d="M111.8,15c-2.5-1.2-5.5-0.2-6.7,2.3c-1.6,3.3-6.5,11.3-12.1,15c-0.8,0.4-1.7,0.6-2.6,0.6
		c-0.8,0-1.6-0.2-2.4-0.5c-0.1,0-5.3-2.5-9.6-4.4l-2,1.8l-2.6-2.5c-0.5-0.1-1.1-0.2-1.6-0.4c-1.1,0.5-2.4,1.2-3.7,1.9
		c0.1-0.6,0.1-1.1,0-1.7c0.6-0.3,1.2-0.7,1.7-1c-3-1.4-5.5-3.8-7-6.8c-0.8,0.5-1.6,1-2.3,1.5c-1.1-0.6-2.2-1.2-3-1.7
		c-1.4,3-3.8,5.5-6.8,6.9c2.5,1.3,8.5,4.6,10.1,5.8c0.4,0.3,0.8,0.4,1.2,0.6v24.3c0,2.1,0.3,4.1,1,5.9c0,0.2,0,0.4,0,0.6v5.5l0,0
		c0,0.1,0,0.2,0,0.2v48c0,3.3,2.7,5.9,5.9,5.9c3.3,0,5.9-2.7,5.9-5.9v-48c0-0.1,0-0.2,0-0.2h0.9c0,0.1,0,0.2,0,0.2v48
		c0,3.3,2.7,5.9,5.9,5.9l0,0c3.3,0,5.9-2.7,5.9-5.9v-48c0-0.1,0-0.2,0-0.2H88v-6.2c0,0,1-1.4,1-6.5c0-2.2,0.2-9.3,0.3-11.9
		c0.6-0.1,1.2-0.2,1.8-0.3l0,0l0,0c0.6-0.1,1.2-0.3,1.7-0.4c12.2-3.8,20.3-19.9,21.2-21.7C115.3,19.2,114.3,16.3,111.8,15z"/>
</g>
</svg>
