<?xml version="1.0" encoding="utf-8"?>
<!-- Generator: Adobe Illustrator 20.0.0, SVG Export Plug-In . SVG Version: 6.00 Build 0)  -->
<svg version="1.1" id="Layer_1" xmlns="http://www.w3.org/2000/svg" xmlns:xlink="http://www.w3.org/1999/xlink" x="0px" y="0px"
	 viewBox="0 0 100 100" style="enable-background:new 0 0 100 100;" xml:space="preserve">
<g>
	<path d="M45.3,67.2c0,1.7,0.6,3.2,1.9,4.4c1.2,1.2,2.7,1.9,4.4,1.9h12.5v11.6c-2.2,1.6-5,2.4-8.4,2.4H13c-3.9,0-7.1-1.1-9.5-3.4
		C1.1,81.9,0,78.8,0,74.9c0-1.7,0.1-3.4,0.2-5.1s0.3-3.4,0.7-5.3s0.8-3.7,1.3-5.3s1.2-3.2,2.1-4.8c0.9-1.5,1.9-2.9,3-4
		c1.1-1.1,2.5-2,4.2-2.6c1.6-0.6,3.5-1,5.5-1c0.6,0,1.2,0.3,1.9,0.8c2.6,2,5.1,3.5,7.5,4.5c2.5,1,5.1,1.5,8,1.5s5.6-0.5,8-1.5
		c2.5-1,5-2.5,7.6-4.5c0.6-0.6,1.3-0.8,1.9-0.8c4.3,0,7.8,1.6,10.6,4.7H51.6c-1.7,0-3.2,0.6-4.4,1.9s-1.9,2.7-1.9,4.4V67.2z
		 M47.6,44.5C44,48.2,39.5,50,34.4,50c-5.2,0-9.6-1.8-13.3-5.5c-3.7-3.7-5.5-8.1-5.5-13.3c0-5.2,1.8-9.6,5.5-13.3
		c3.7-3.7,8.1-5.5,13.3-5.5c5.2,0,9.6,1.8,13.3,5.5c3.7,3.7,5.5,8.1,5.5,13.3C53.1,36.4,51.3,40.8,47.6,44.5z M81.3,56.3h17.2
		c0.4,0,0.8,0.2,1.1,0.5c0.3,0.3,0.5,0.7,0.5,1.1v9.4c0,0.4-0.1,0.8-0.5,1.1c-0.3,0.3-0.7,0.5-1.1,0.5H81.3V86
		c0,0.4-0.1,0.8-0.5,1.1c-0.3,0.3-0.7,0.5-1.1,0.5h-9.4c-0.4,0-0.8-0.2-1.1-0.5c-0.3-0.3-0.5-0.7-0.5-1.1V68.8H51.6
		c-0.4,0-0.8-0.2-1.1-0.5C50.2,68,50,67.6,50,67.2v-9.4c0-0.4,0.1-0.8,0.5-1.1c0.3-0.3,0.7-0.5,1.1-0.5h17.2V39.1
		c0-0.4,0.1-0.8,0.5-1.1c0.3-0.3,0.7-0.5,1.1-0.5h9.4c0.4,0,0.8,0.2,1.1,0.5c0.3,0.3,0.5,0.7,0.5,1.1V56.3z"/>
</g>
</svg>
