<?xml version="1.0" encoding="utf-8"?>
<!-- Generator: Adobe Illustrator 20.0.0, SVG Export Plug-In . SVG Version: 6.00 Build 0)  -->
<svg version="1.1" id="Layer_1" xmlns="http://www.w3.org/2000/svg" xmlns:xlink="http://www.w3.org/1999/xlink" x="0px" y="0px"
	 viewBox="0 0 100 100" style="enable-background:new 0 0 100 100;" xml:space="preserve">
<style type="text/css">
	.st0{fill:#FFFFFF;}
</style>
<g>
	<path class="st0" d="M47.1,60.8c0,1.1,0.4,2,1.2,2.8c0.8,0.8,1.7,1.2,2.8,1.2h7.8V72c-1.4,1-3.1,1.5-5.3,1.5H26.8
		c-2.4,0-4.4-0.7-6-2.1c-1.5-1.4-2.2-3.3-2.2-5.8c0-1.1,0.1-2.1,0.1-3.2c0.1-1.1,0.2-2.1,0.4-3.3c0.3-1.2,0.5-2.3,0.8-3.3
		s0.8-2,1.3-3c0.6-0.9,1.2-1.8,1.9-2.5c0.7-0.7,1.6-1.3,2.6-1.6c1-0.4,2.2-0.6,3.4-0.6c0.4,0,0.8,0.2,1.2,0.5
		c1.6,1.3,3.2,2.2,4.7,2.8c1.6,0.6,3.2,0.9,5,0.9s3.5-0.3,5-0.9c1.6-0.6,3.1-1.6,4.8-2.8c0.4-0.4,0.8-0.5,1.2-0.5
		c2.7,0,4.9,1,6.6,2.9H51c-1.1,0-2,0.4-2.8,1.2S47,53.9,47,55C47.1,54.9,47.1,60.8,47.1,60.8z M48.5,46.6c-2.3,2.3-5.1,3.4-8.3,3.4
		c-3.3,0-6-1.1-8.3-3.4c-2.3-2.3-3.4-5.1-3.4-8.3c0-3.3,1.1-6,3.4-8.3s5.1-3.4,8.3-3.4c3.3,0,6,1.1,8.3,3.4s3.4,5.1,3.4,8.3
		C52,41.5,50.8,44.2,48.5,46.6z M69.6,53.9h10.8c0.3,0,0.5,0.1,0.7,0.3s0.3,0.4,0.3,0.7v5.9c0,0.3-0.1,0.5-0.3,0.7
		c-0.2,0.2-0.4,0.3-0.7,0.3H69.6v10.7c0,0.3-0.1,0.5-0.3,0.7c-0.2,0.2-0.4,0.3-0.7,0.3h-5.9c-0.3,0-0.5-0.1-0.7-0.3
		c-0.2-0.2-0.3-0.4-0.3-0.7V61.8H51c-0.3,0-0.5-0.1-0.7-0.3S50,61,50,60.8v-5.9c0-0.3,0.1-0.5,0.3-0.7s0.4-0.3,0.7-0.3h10.8V43.2
		c0-0.3,0.1-0.5,0.3-0.7s0.4-0.3,0.7-0.3h5.9c0.3,0,0.5,0.1,0.7,0.3s0.3,0.4,0.3,0.7L69.6,53.9L69.6,53.9z"/>
</g>
</svg>
