<?xml version="1.0" encoding="utf-8"?>
<!-- Generator: Adobe Illustrator 20.0.0, SVG Export Plug-In . SVG Version: 6.00 Build 0)  -->
<svg version="1.1" id="Layer_1" xmlns="http://www.w3.org/2000/svg" xmlns:xlink="http://www.w3.org/1999/xlink" x="0px" y="0px"
	 viewBox="0 0 100 100" style="enable-background:new 0 0 100 100;" xml:space="preserve">
<g>
	<path d="M46.1,64c0,1.4,0.5,2.6,1.5,3.6c1,1,2.2,1.5,3.6,1.5h10.2v9.4c-1.8,1.3-4.1,2-6.8,2H19.9c-3.2,0-5.8-0.9-7.7-2.8
		c-2-1.8-2.8-4.3-2.8-7.5c0-1.4,0.1-2.8,0.2-4.1c0.1-1.4,0.2-2.8,0.6-4.3c0.3-1.5,0.7-3,1.1-4.3s1-2.6,1.7-3.9
		c0.7-1.2,1.5-2.4,2.4-3.3c0.9-0.9,2-1.6,3.4-2.1c1.3-0.5,2.8-0.8,4.5-0.8c0.5,0,1,0.2,1.5,0.7c2.1,1.6,4.1,2.8,6.1,3.7
		c2,0.8,4.1,1.2,6.5,1.2s4.6-0.4,6.5-1.2c2-0.8,4.1-2,6.2-3.7c0.5-0.5,1.1-0.7,1.5-0.7c3.5,0,6.3,1.3,8.6,3.8h-8.9
		c-1.4,0-2.6,0.5-3.6,1.5c-1,1.1-1.5,2.2-1.5,3.6C46.1,56.3,46.1,64,46.1,64z M48,45.5c-2.9,3-6.6,4.5-10.7,4.5
		c-4.2,0-7.8-1.5-10.8-4.5c-3-3-4.5-6.6-4.5-10.8s1.5-7.8,4.5-10.8s6.6-4.5,10.8-4.5s7.8,1.5,10.8,4.5s4.5,6.6,4.5,10.8
		C52.5,38.9,51,42.5,48,45.5z M75.4,55.1h14c0.3,0,0.7,0.2,0.9,0.4c0.2,0.2,0.4,0.6,0.4,0.9v7.6c0,0.3-0.1,0.7-0.4,0.9
		c-0.2,0.2-0.6,0.4-0.9,0.4h-14v13.9c0,0.3-0.1,0.7-0.4,0.9c-0.2,0.2-0.6,0.4-0.9,0.4h-7.6c-0.3,0-0.7-0.2-0.9-0.4
		c-0.2-0.2-0.4-0.6-0.4-0.9v-14H51.3c-0.3,0-0.7-0.2-0.9-0.4C50.1,64.6,50,64.3,50,64v-7.6c0-0.3,0.1-0.7,0.4-0.9
		c0.2-0.2,0.6-0.4,0.9-0.4h14V41.1c0-0.3,0.1-0.7,0.4-0.9c0.2-0.2,0.6-0.4,0.9-0.4h7.6c0.3,0,0.7,0.2,0.9,0.4
		c0.2,0.2,0.4,0.6,0.4,0.9L75.4,55.1L75.4,55.1z"/>
</g>
</svg>
