<?xml version="1.0" encoding="utf-8"?>
<!-- Generator: Adobe Illustrator 20.0.0, SVG Export Plug-In . SVG Version: 6.00 Build 0)  -->
<svg version="1.1" id="Layer_1" xmlns="http://www.w3.org/2000/svg" xmlns:xlink="http://www.w3.org/1999/xlink" x="0px" y="0px"
	 viewBox="0 0 100 100" style="enable-background:new 0 0 100 100;" xml:space="preserve">
<style type="text/css">
	.st0{fill:#FFFFFF;}
</style>
<g>
	<path class="st0" d="M89.6,52.5v14.8c0,0.4-0.1,0.7-0.4,0.9c-0.2,0.2-0.5,0.4-0.9,0.4h-3.7v5c0,2.1-0.7,3.8-2.1,5.2
		C81,80.2,79.2,81,77.2,81c-2.1,0-3.8-0.7-5.2-2.1c-1.4-1.4-2.1-3.3-2.1-5.2v-5H30.3v5c0,2.1-0.7,3.8-2.1,5.2
		C26.8,80.3,24.9,81,23,81s-3.8-0.7-5.2-2.1c-1.4-1.4-2.1-3.3-2.1-5.2v-5h-3.8c-0.4,0-0.7-0.1-0.9-0.4c-0.2-0.2-0.4-0.5-0.4-0.9
		V52.5c0-2.5,0.9-4.4,2.5-6.2s3.8-2.5,6.2-2.5h1.1l4-16.2c0.6-2.5,2-4.4,4-6c2-1.7,4.4-2.5,6.9-2.5h29.6c2.5,0,4.8,0.8,6.9,2.5
		s3.4,3.7,4,6l4.1,16.2H81c2.5,0,4.4,0.9,6.2,2.5C88.8,48,89.6,50.1,89.6,52.5z M27.3,60.5c1.2-1.2,1.8-2.6,1.8-4.4
		s-0.6-3.1-1.8-4.4c-1.3-1.3-2.6-1.8-4.4-1.8c-1.7,0-3.1,0.6-4.4,1.8s-1.9,2.6-1.9,4.4s0.6,3.1,1.8,4.4c1.2,1.2,2.6,1.8,4.4,1.8
		C24.5,62.4,26,61.8,27.3,60.5z M30.4,43.8h39.3L66.3,30c-0.1-0.2-0.2-0.4-0.6-0.7c-0.3-0.3-0.6-0.4-0.8-0.4H35.1
		c-0.2,0-0.5,0.1-0.8,0.4c-0.3,0.2-0.5,0.5-0.6,0.7L30.4,43.8z M81.6,60.5c1.2-1.2,1.8-2.6,1.8-4.4s-0.6-3.1-1.8-4.4
		s-2.6-1.8-4.4-1.8c-1.7,0-3.1,0.6-4.4,1.8C71.5,53,71,54.3,71,56.1s0.6,3.1,1.8,4.4c1.2,1.2,2.6,1.8,4.4,1.8
		C78.9,62.4,80.4,61.8,81.6,60.5z"/>
</g>
</svg>
