<?xml version="1.0" encoding="utf-8"?>
<!-- Generator: Adobe Illustrator 20.0.0, SVG Export Plug-In . SVG Version: 6.00 Build 0)  -->
<svg version="1.1" id="Layer_1" xmlns="http://www.w3.org/2000/svg" xmlns:xlink="http://www.w3.org/1999/xlink" x="0px" y="0px"
	 viewBox="0 0 100 100" style="enable-background:new 0 0 100 100;" xml:space="preserve">
<style type="text/css">
	.st0{fill:#FFFFFF;}
</style>
<g>
	<path class="st0" d="M28.3,68.4v6.5c0,0.3-0.1,0.5-0.3,0.8c-0.2,0.2-0.5,0.3-0.8,0.3h-6.5c-0.3,0-0.5-0.1-0.8-0.3
		c-0.2-0.2-0.3-0.4-0.3-0.7v-6.6c0-0.3,0.1-0.5,0.3-0.8c0.2-0.2,0.5-0.3,0.8-0.3h6.5c0.3,0,0.5,0.1,0.8,0.3
		C28.2,67.9,28.3,68.1,28.3,68.4z M41.3,64.1V75c0,0.3-0.1,0.5-0.3,0.8c-0.2,0.2-0.5,0.3-0.8,0.3h-6.5c-0.3,0-0.5-0.1-0.8-0.3
		c-0.2-0.2-0.3-0.5-0.3-0.8V64.1c0-0.3,0.1-0.5,0.3-0.8c0.2-0.2,0.5-0.3,0.8-0.3h6.5c0.3,0,0.5,0.1,0.8,0.3
		C41.2,63.6,41.3,63.8,41.3,64.1z M54.3,55.4v19.5c0,0.3-0.1,0.5-0.3,0.8c-0.2,0.2-0.5,0.3-0.8,0.3h-6.5c-0.3,0-0.5-0.1-0.8-0.3
		c-0.2-0.2-0.3-0.5-0.3-0.8V55.4c0-0.3,0.1-0.5,0.3-0.8c0.2-0.2,0.5-0.3,0.8-0.3h6.5c0.3,0,0.5,0.1,0.8,0.3
		C54.3,54.9,54.3,55.1,54.3,55.4z M67.4,42.4V75c0,0.3-0.1,0.5-0.3,0.8c-0.2,0.2-0.5,0.3-0.8,0.3h-6.5c-0.3,0-0.5-0.1-0.8-0.3
		c-0.2-0.2-0.3-0.5-0.3-0.8V42.4c0-0.3,0.1-0.5,0.3-0.8c0.2-0.2,0.5-0.3,0.8-0.3h6.5c0.3,0,0.5,0.1,0.8,0.3
		C67.3,41.9,67.4,42.1,67.4,42.4z M80.4,25v49.9c0,0.3-0.1,0.5-0.3,0.8c-0.2,0.2-0.5,0.3-0.8,0.3h-6.5c-0.3,0-0.5-0.1-0.8-0.3
		c-0.2-0.2-0.3-0.5-0.3-0.8V25c0-0.3,0.1-0.5,0.3-0.8c0.2-0.2,0.5-0.3,0.8-0.3h6.5c0.3,0,0.5,0.1,0.8,0.3
		C80.3,24.5,80.4,24.7,80.4,25z"/>
</g>
</svg>
