<?xml version="1.0" encoding="utf-8"?>
<!-- Generator: Adobe Illustrator 20.0.0, SVG Export Plug-In . SVG Version: 6.00 Build 0)  -->
<svg version="1.1" id="Layer_1" xmlns="http://www.w3.org/2000/svg" xmlns:xlink="http://www.w3.org/1999/xlink" x="0px" y="0px"
	 viewBox="0 0 100 100" style="enable-background:new 0 0 100 100;" xml:space="preserve">
<g>
	<path d="M14.3,80.3v10.7c0,0.5-0.2,0.9-0.5,1.3c-0.3,0.3-0.8,0.5-1.3,0.5H1.8c-0.5,0-0.9-0.2-1.3-0.5C0.2,92,0,91.6,0,91.1V80.3
		c0-0.5,0.2-0.9,0.5-1.3c0.3-0.3,0.8-0.5,1.3-0.5h10.7c0.5,0,0.9,0.2,1.3,0.5C14.1,79.4,14.3,79.8,14.3,80.3z M35.7,73.2v17.9
		c0,0.5-0.2,0.9-0.5,1.3c-0.3,0.3-0.8,0.5-1.3,0.5H23.2c-0.5,0-0.9-0.2-1.3-0.5c-0.3-0.3-0.5-0.8-0.5-1.3V73.2
		c0-0.5,0.2-0.9,0.5-1.3c0.3-0.3,0.8-0.5,1.3-0.5h10.7c0.5,0,0.9,0.2,1.3,0.5C35.6,72.3,35.7,72.7,35.7,73.2z M57.1,58.9v32.1
		c0,0.5-0.2,0.9-0.5,1.3c-0.3,0.3-0.8,0.5-1.3,0.5H44.6c-0.5,0-0.9-0.2-1.3-0.5c-0.3-0.3-0.5-0.8-0.5-1.3V58.9
		c0-0.5,0.2-0.9,0.5-1.3c0.3-0.3,0.8-0.5,1.3-0.5h10.7c0.5,0,0.9,0.2,1.3,0.5C57,58,57.1,58.4,57.1,58.9z M78.6,37.5v53.6
		c0,0.5-0.2,0.9-0.5,1.3c-0.3,0.3-0.8,0.5-1.3,0.5H66.1c-0.5,0-0.9-0.2-1.3-0.5c-0.3-0.3-0.5-0.8-0.5-1.3V37.5
		c0-0.5,0.2-0.9,0.5-1.3c0.3-0.3,0.8-0.5,1.3-0.5h10.7c0.5,0,0.9,0.2,1.3,0.5C78.4,36.6,78.6,37,78.6,37.5z M100,8.9v82.1
		c0,0.5-0.2,0.9-0.5,1.3c-0.3,0.3-0.8,0.5-1.3,0.5H87.5c-0.5,0-0.9-0.2-1.3-0.5c-0.3-0.3-0.5-0.8-0.5-1.3V8.9c0-0.5,0.2-0.9,0.5-1.3
		c0.3-0.3,0.8-0.5,1.3-0.5h10.7c0.5,0,0.9,0.2,1.3,0.5C99.8,8,100,8.4,100,8.9z"/>
</g>
</svg>
