<?xml version="1.0" encoding="utf-8"?>
<!-- Generator: Adobe Illustrator 20.0.0, SVG Export Plug-In . SVG Version: 6.00 Build 0)  -->
<svg version="1.1" id="Layer_1" xmlns="http://www.w3.org/2000/svg" xmlns:xlink="http://www.w3.org/1999/xlink" x="0px" y="0px"
	 viewBox="0 0 100 100" style="enable-background:new 0 0 100 100;" xml:space="preserve">
<style type="text/css">
	.st0{fill:#FFFFFF;}
</style>
<g>
	<path class="st0" d="M49.9,43.5L49.9,43.5c-0.4,1.3-0.7,2.9-1.1,4.2l-1.3,4.6h4.8L51,47.6C50.7,46.4,50.3,44.8,49.9,43.5z"/>
	<path class="st0" d="M72.8,39.2c1.8-0.5,2.2-3.8,0.9-6.2c-1-1.8-4.6-1.1-6.3-0.6c-0.1-0.2-0.1-0.4-0.2-0.4
		c-0.2-0.2-0.8-0.3-1.7-0.5c0-1.8-0.1-3.9-0.3-4.9c-0.5-1.8-3.8-2.2-6.2-0.9c-1.5,0.8-1.3,3.3-0.9,5.1c-2.5-0.2-5.3-0.3-8.2-0.3
		c0-1.6-0.1-3.3-0.3-4.1c-0.5-1.8-3.8-2.2-6.2-0.9c-1.4,0.8-1.3,3.1-0.9,5c-2.3,0-4.4,0.1-6.2,0.2c-0.1-1.1-0.1-2.1-0.3-2.7
		c-0.5-1.8-3.8-2.2-6.2-0.9c-1.7,0.9-1.2,4-0.7,5.8c-0.9,0.1-1.6,0.1-2,0.3c-1.8,0.5-2.3,3.8-0.9,6.2c0.7,1.3,2.8,1.3,4.5,1
		c-0.1,2.8-0.2,6-0.2,9.2c-1.4,0-2.8,0.1-3.5,0.3c-1.8,0.5-2.2,3.8-0.9,6.2c0.7,1.3,2.7,1.3,4.5,1c0.1,3.1,0.3,6,0.5,8.1
		c-1.2,0.1-2.3,0.1-2.9,0.3c-1.8,0.5-2.2,3.8-0.9,6.2c1.1,2,5.2,0.9,6.7,0.4c0.1,0.6,0.1,1.1,0.2,1.4c0.5,1.8,3.8,2.2,6.2,0.9
		c1.3-0.7,1.3-2.6,1-4.3c2.2,0.1,4.5,0.1,6.9,0c0,1.4,0.1,2.7,0.3,3.4c0.5,1.8,3.8,2.2,6.2,0.9c1.3-0.7,1.3-2.7,1-4.5
		c2.7-0.1,5.2-0.3,7.2-0.4c0,1.5,0.1,3.2,0.3,3.9c0.5,1.8,3.8,2.2,6.2,0.9c2.1-1.1,0.8-5.5,0.4-6.9c1.2-0.1,2.2-0.1,2.8-0.3
		c1.8-0.5,2.2-3.8,0.9-6.2c-0.8-1.4-3.1-1.3-4.9-0.9c0.1-6.3-0.2-14.6-0.7-20.5C69.9,39.5,71.8,39.5,72.8,39.2z M54.8,61.5l-1.7-5.6
		h-6.2l-1.6,5.6h-5.1l6.6-21.7h6.4L60,61.5H54.8z"/>
</g>
</svg>
