<?xml version="1.0" encoding="utf-8"?>
<!-- Generator: Adobe Illustrator 20.0.0, SVG Export Plug-In . SVG Version: 6.00 Build 0)  -->
<svg version="1.1" id="Layer_1" xmlns="http://www.w3.org/2000/svg" xmlns:xlink="http://www.w3.org/1999/xlink" x="0px" y="0px"
	 viewBox="0 0 100 100" style="enable-background:new 0 0 100 100;" xml:space="preserve">
<style type="text/css">
	.st0{fill:#0F0E0E;}
</style>
<g>
	<path class="st0" d="M12,5.1v94.8h61.9V5.1c0-2.7-2.2-4.9-4.9-4.9h-52C14.2,0.1,12,2.3,12,5.1z M63.4,40h-41
		c-1.4,0-2.5-1.1-2.5-2.5V12.1c0-1.4,1.1-2.5,2.5-2.5h41c1.4,0,2.5,1.1,2.5,2.5v25.4C65.9,38.9,64.8,40,63.4,40z"/>
	<g>
		<path class="st0" d="M85,79.8c-4.3,0-7.8-3.5-7.8-7.8c0-2.7-2.2-4.9-4.9-4.9H71v-2.6h1.3c4.1,0,7.5,3.4,7.5,7.5
			c0,2.9,2.3,5.2,5.2,5.2c2.9,0,5.2-2.3,5.2-5.2V53.3c0-10.6-8.6-19.2-19.2-19.2v-2.6c12,0,21.8,9.8,21.8,21.8V72
			C92.8,76.3,89.3,79.8,85,79.8z"/>
	</g>
	<path class="st0" d="M72.8,94.7H12.4c-2.9,0-5.2,2.3-5.2,5.2l0,0H78l0,0C78,97,75.6,94.7,72.8,94.7z"/>
	<g>
		<g>
			<path class="st0" d="M50.2,24.7c-1.9-1.9-4.5-3-7.2-3c-2.7,0-5.3,1.1-7.2,3l-1.6-1.6c4.8-4.8,12.7-4.8,17.6,0L50.2,24.7z"/>
		</g>
		<rect x="38.3" y="27.1" class="st0" width="9.3" height="2"/>
	</g>
</g>
</svg>
