<?xml version="1.0" encoding="utf-8"?>
<!-- Generator: Adobe Illustrator 20.0.0, SVG Export Plug-In . SVG Version: 6.00 Build 0)  -->
<svg version="1.1" id="Layer_1" xmlns="http://www.w3.org/2000/svg" xmlns:xlink="http://www.w3.org/1999/xlink" x="0px" y="0px"
	 viewBox="0 0 100 100" style="enable-background:new 0 0 100 100;" xml:space="preserve">
<style type="text/css">
	.st0{fill:#FFFFFF;}
</style>
<g>
	<path class="st0" d="M28.8,24.9v52.9h34.6V24.9c0-1.5-1.2-2.7-2.7-2.7h-29C30,22.2,28.8,23.4,28.8,24.9z M57.5,44.4H34.6
		c-0.8,0-1.4-0.6-1.4-1.4V28.9c0-0.8,0.6-1.4,1.4-1.4h22.9c0.8,0,1.4,0.6,1.4,1.4V43C58.9,43.8,58.3,44.4,57.5,44.4z"/>
	<g>
		<path class="st0" d="M69.5,66.7c-2.4,0-4.4-2-4.4-4.4c0-1.5-1.2-2.7-2.7-2.7h-0.7v-1.5h0.7c2.3,0,4.2,1.9,4.2,4.2
			c0,1.6,1.3,2.9,2.9,2.9s2.9-1.3,2.9-2.9V51.9c0-5.9-4.8-10.7-10.7-10.7v-1.5c6.7,0,12.2,5.5,12.2,12.2v10.4
			C73.9,64.7,71.9,66.7,69.5,66.7z"/>
	</g>
	<path class="st0" d="M62.7,75H29c-1.6,0-2.9,1.3-2.9,2.9l0,0h39.5l0,0C65.6,76.3,64.3,75,62.7,75z"/>
	<g>
		<g>
			<path class="st0" d="M50.1,35.9c-1.1-1.1-2.5-1.7-4-1.7s-3,0.6-4,1.7L41.2,35c2.7-2.7,7.1-2.7,9.8,0L50.1,35.9z"/>
		</g>
		<rect x="43.5" y="37.2" class="st0" width="5.2" height="1.1"/>
	</g>
</g>
</svg>
