<?xml version="1.0" encoding="utf-8"?>
<!-- Generator: Adobe Illustrator 20.0.0, SVG Export Plug-In . SVG Version: 6.00 Build 0)  -->
<svg version="1.1" id="Layer_1" xmlns="http://www.w3.org/2000/svg" xmlns:xlink="http://www.w3.org/1999/xlink" x="0px" y="0px"
	 viewBox="0 0 100 100" style="enable-background:new 0 0 100 100;" xml:space="preserve">
<style type="text/css">
	.st0{fill:#FFFFFF;}
</style>
<g>
	<path class="st0" d="M81.3,30.7V50c0,0.6-0.2,1.1-0.6,1.6s-0.9,0.7-1.5,0.8L39.9,57c0.3,1.5,0.5,2.4,0.5,2.6c0,0.4-0.3,1.2-0.9,2.4
		h34.6c0.7,0,1.2,0.3,1.7,0.7s0.7,1,0.7,1.7c0,0.7-0.3,1.2-0.7,1.7s-1,0.7-1.7,0.7H35.5c-0.7,0-1.2-0.3-1.7-0.7
		c-0.5-0.5-0.7-1.1-0.7-1.7c0-0.3,0.1-0.7,0.3-1.2s0.4-0.9,0.6-1.3c0.2-0.4,0.5-0.9,0.8-1.5s0.5-1,0.6-1.1l-6.7-31H21
		c-0.7,0-1.2-0.3-1.7-0.7c-0.5-0.5-0.7-1.1-0.7-1.7c0-0.7,0.3-1.2,0.7-1.7c0.5-0.5,1-0.7,1.7-0.7h9.6c0.4,0,0.7,0.1,1.1,0.3
		c0.3,0.1,0.5,0.3,0.7,0.6c0.2,0.2,0.3,0.5,0.5,0.9c0.1,0.4,0.3,0.7,0.3,1c0.1,0.3,0.1,0.6,0.2,1.1c0.1,0.5,0.1,0.8,0.2,1h45.2
		c0.7,0,1.2,0.3,1.7,0.7C81.1,29.5,81.3,30.1,81.3,30.7z M41.3,68.3c0.9,0.9,1.4,2.1,1.4,3.4S42.3,74,41.3,75
		c-0.9,0.9-2.1,1.4-3.4,1.4c-1.3,0-2.4-0.5-3.4-1.4c-0.9-0.9-1.4-2.1-1.4-3.4s0.5-2.4,1.4-3.4c0.9-0.9,2.1-1.4,3.4-1.4
		C39.2,66.9,40.4,67.3,41.3,68.3z M75.1,68.3c0.9,0.9,1.4,2.1,1.4,3.4S76,74,75.1,75c-0.9,0.9-2.1,1.4-3.4,1.4s-2.4-0.5-3.4-1.4
		s-1.4-2.1-1.4-3.4s0.5-2.4,1.4-3.4c0.9-0.9,2.1-1.4,3.4-1.4C73,66.9,74.1,67.3,75.1,68.3z"/>
</g>
</svg>
