<?xml version="1.0" encoding="utf-8"?>
<!-- Generator: Adobe Illustrator 20.0.0, SVG Export Plug-In . SVG Version: 6.00 Build 0)  -->
<svg version="1.1" id="Layer_1" xmlns="http://www.w3.org/2000/svg" xmlns:xlink="http://www.w3.org/1999/xlink" x="0px" y="0px"
	 viewBox="0 0 100 100" style="enable-background:new 0 0 100 100;" xml:space="preserve">
<g>
	<path d="M96.6,21.3V50c0,0.9-0.3,1.7-0.9,2.4c-0.6,0.7-1.4,1.1-2.3,1.2l-58.4,6.8c0.5,2.2,0.7,3.5,0.7,3.9c0,0.6-0.4,1.8-1.3,3.6
		h51.5c1,0,1.8,0.4,2.5,1.1c0.7,0.7,1.1,1.5,1.1,2.5c0,1-0.4,1.8-1.1,2.5c-0.7,0.7-1.5,1.1-2.5,1.1H28.5c-1,0-1.8-0.4-2.5-1.1
		c-0.7-0.7-1.1-1.6-1.1-2.5c0-0.4,0.1-1,0.4-1.8c0.3-0.8,0.6-1.4,0.9-2c0.3-0.6,0.7-1.3,1.2-2.2c0.5-0.9,0.8-1.5,0.9-1.6l-9.9-46.1
		H7c-1,0-1.8-0.4-2.5-1.1c-0.7-0.7-1.1-1.6-1.1-2.5c0-1,0.4-1.8,1.1-2.5S6,10.6,7,10.6h14.3c0.6,0,1.1,0.1,1.6,0.4
		c0.5,0.2,0.8,0.5,1.1,0.9c0.3,0.3,0.5,0.8,0.7,1.4c0.2,0.6,0.4,1.1,0.4,1.5c0.1,0.4,0.2,0.9,0.3,1.6c0.1,0.7,0.2,1.2,0.3,1.5H93
		c1,0,1.8,0.4,2.5,1.1C96.2,19.5,96.6,20.4,96.6,21.3z M37.1,77.2c1.4,1.4,2.1,3.1,2.1,5c0,1.9-0.7,3.6-2.1,5
		c-1.4,1.4-3.1,2.1-5,2.1c-1.9,0-3.6-0.7-5-2.1c-1.4-1.4-2.1-3.1-2.1-5c0-1.9,0.7-3.6,2.1-5c1.4-1.4,3.1-2.1,5-2.1
		C34,75.1,35.7,75.8,37.1,77.2z M87.3,77.2c1.4,1.4,2.1,3.1,2.1,5c0,1.9-0.7,3.6-2.1,5c-1.4,1.4-3.1,2.1-5,2.1c-1.9,0-3.6-0.7-5-2.1
		c-1.4-1.4-2.1-3.1-2.1-5c0-1.9,0.7-3.6,2.1-5c1.4-1.4,3.1-2.1,5-2.1C84.2,75.1,85.9,75.8,87.3,77.2z"/>
</g>
</svg>
