<?xml version="1.0" encoding="utf-8"?>
<!-- Generator: Adobe Illustrator 20.0.0, SVG Export Plug-In . SVG Version: 6.00 Build 0)  -->
<svg version="1.1" id="Layer_1" xmlns="http://www.w3.org/2000/svg" xmlns:xlink="http://www.w3.org/1999/xlink" x="0px" y="0px"
	 viewBox="0 0 100 100" style="enable-background:new 0 0 100 100;" xml:space="preserve">
<g>
	<path d="M99.8,49.5c0,0.5-0.2,1-0.6,1.3c-0.4,0.4-0.8,0.6-1.3,0.6c-0.4,0-0.9-0.2-1.4-0.6c-2-1.8-3.8-3.2-5.6-4.1
		c-1.8-0.9-3.8-1.4-6.1-1.4c-2.7,0-5.3,0.7-7.7,2.2c-2.4,1.5-4.4,3.4-6.2,5.8c-0.3,0.4-0.6,1-1,1.7c-0.4,0.7-0.7,1.2-0.9,1.4
		c-0.4,0.7-1,1-1.7,1c-0.7,0-1.3-0.3-1.7-1c-0.2-0.2-0.5-0.7-0.9-1.4c-0.4-0.7-0.8-1.3-1-1.7C62,50.9,60,49,57.6,47.5
		c-2.4-1.5-4.9-2.2-7.6-2.2s-5.3,0.7-7.6,2.2C40,49,38,50.9,36.2,53.3c-0.3,0.4-0.6,1-1,1.7c-0.4,0.7-0.7,1.2-0.9,1.4
		c-0.4,0.7-1,1-1.7,1c-0.7,0-1.2-0.3-1.7-1c-0.2-0.2-0.5-0.7-0.9-1.4c-0.4-0.7-0.8-1.3-1-1.7c-1.7-2.4-3.8-4.3-6.2-5.8
		c-2.4-1.5-4.9-2.2-7.7-2.2c-2.3,0-4.3,0.5-6.1,1.4c-1.8,0.9-3.6,2.3-5.6,4.1c-0.5,0.4-0.9,0.6-1.4,0.6c-0.5,0-1-0.2-1.3-0.6
		c-0.4-0.4-0.6-0.8-0.6-1.3c0-0.2,0-0.3,0.1-0.4c1.8-7.3,5.2-13.7,10.3-19.1s11-9.5,17.8-12.2c6.8-2.7,14-4.1,21.6-4.1
		c5.6,0,11.1,0.8,16.4,2.4c5.4,1.6,10.3,3.9,14.8,6.8s8.3,6.7,11.6,11.2c3.3,4.5,5.6,9.5,6.9,15.1C99.8,49.1,99.8,49.3,99.8,49.5z
		 M53.8,47.8v34.7c0,4.1-1.5,7.7-4.5,10.8c-3,3-6.6,4.5-10.8,4.5c-4.2,0-7.7-1.5-10.8-4.5c-3-3-4.5-6.6-4.5-10.8
		c0-1,0.4-1.9,1.1-2.7c0.8-0.8,1.7-1.1,2.7-1.1c1,0,1.9,0.4,2.7,1.1c0.8,0.8,1.1,1.7,1.1,2.7c0,2,0.8,3.8,2.3,5.3
		c1.6,1.6,3.3,2.3,5.3,2.3c2,0,3.8-0.8,5.3-2.3c1.6-1.6,2.3-3.3,2.3-5.3V47.8c1.3-0.4,2.6-0.7,3.8-0.7S52.5,47.4,53.8,47.8z M53.8,6
		v5.9c-1.7-0.1-2.9-0.1-3.8-0.1c-0.9,0-2.2,0-3.8,0.1V6c0-1,0.4-1.9,1.1-2.7C48.1,2.5,49,2.1,50,2.1s1.9,0.4,2.7,1.1
		C53.4,4,53.8,4.9,53.8,6z"/>
</g>
</svg>
