<?xml version="1.0" encoding="utf-8"?>
<!-- Generator: Adobe Illustrator 20.0.0, SVG Export Plug-In . SVG Version: 6.00 Build 0)  -->
<svg version="1.1" id="Layer_1" xmlns="http://www.w3.org/2000/svg" xmlns:xlink="http://www.w3.org/1999/xlink" x="0px" y="0px"
	 viewBox="0 0 100 100" style="enable-background:new 0 0 100 100;" xml:space="preserve">
<g>
	<path d="M46.6,2c2.1-1.3,4.5-2,7-2s4.9,0.7,7,2c2.1,1.3,3.8,3.1,4.9,5.4c0.7-0.1,1.5-0.2,2.3-0.2c3.7,0,6.8,1.3,9.4,3.9
		c2.6,2.6,3.9,5.8,3.9,9.5v0.9c3.9-0.2,7.3,1,10.1,3.6s4.2,5.9,4.2,9.8v27.8c0,1.5-0.1,3-0.4,4.6l-4.2,22.5
		c-0.5,2.9-1.9,5.4-4.3,7.3c-2.3,1.9-5,2.9-8,2.9H40.2c-2.2,0-4.4-0.5-6.4-1.5c-2-1-3.7-2.4-5-4.2L7.3,65.7
		c-1.9-2.5-2.8-5.4-2.8-8.6c0-3.9,1.4-7.3,4.2-10.1s6.2-4.2,10.1-4.2c2.9,0,5.3,0.6,7.1,1.9V20.6c0-3.7,1.3-6.8,3.9-9.5
		c2.6-2.6,5.8-3.9,9.4-3.9c0.9,0,1.6,0.1,2.3,0.2C42.8,5.1,44.4,3.3,46.6,2z M58,9c-1.2-1.2-2.7-1.8-4.4-1.8S50.4,7.8,49.2,9
		c-1.2,1.2-1.8,2.7-1.8,4.4V50h-1.8V20.6c0-1.7-0.6-3.2-1.8-4.4c-1.2-1.2-2.7-1.8-4.4-1.8s-3.2,0.6-4.4,1.8
		c-1.2,1.2-1.8,2.7-1.8,4.4V50v14.3l-8.6-11.4C23,50.9,21.2,50,18.8,50c-2,0-3.7,0.7-5,2.1c-1.4,1.4-2.1,3.1-2.1,5
		c0,1.6,0.5,3,1.4,4.3L34.5,90c1.4,1.9,3.3,2.8,5.7,2.8h38.4c1.3,0,2.4-0.4,3.4-1.2c1-0.8,1.6-1.9,1.9-3.1l4.2-22.6
		c0.2-1.2,0.3-2.3,0.3-3.3V34.8c0-1.7-0.6-3.2-1.8-4.4c-1.2-1.2-2.7-1.8-4.4-1.8c-1.7,0-3.2,0.6-4.4,1.8c-1.2,1.2-1.8,2.7-1.8,4.4
		V50h-1.8V20.6c0-1.7-0.6-3.2-1.8-4.4c-1.2-1.2-2.7-1.8-4.4-1.8c-1.7,0-3.2,0.6-4.4,1.8c-1.2,1.2-1.8,2.7-1.8,4.4V50h-1.8V13.4
		C59.8,11.7,59.2,10.2,58,9z"/>
</g>
<g>
	<path d="M68.1,76.3c0,2.1-0.7,4-2.1,5.5c-1.4,1.6-3.2,2.5-5.4,2.8v3.7c0,0.2-0.1,0.3-0.2,0.5C60.3,89,60.1,89,59.9,89h-2.8
		c-0.2,0-0.3-0.1-0.5-0.2c-0.2-0.2-0.2-0.3-0.2-0.5v-3.7c-0.9-0.1-1.8-0.3-2.7-0.6c-0.8-0.3-1.6-0.6-2.1-0.9c-0.6-0.3-1.1-0.6-1.6-1
		c-0.5-0.3-0.8-0.6-1-0.8c-0.2-0.2-0.3-0.3-0.4-0.4c-0.2-0.3-0.3-0.6,0-0.9l2.2-2.8c0.1-0.2,0.3-0.2,0.5-0.3c0.2,0,0.4,0,0.5,0.2
		l0,0c1.6,1.4,3.3,2.2,5.1,2.6c0.5,0.1,1,0.2,1.6,0.2c1.1,0,2.1-0.3,3-0.9s1.3-1.4,1.3-2.5c0-0.4-0.1-0.8-0.3-1.1
		c-0.2-0.3-0.5-0.6-0.7-0.9c-0.3-0.2-0.7-0.5-1.2-0.8c-0.6-0.3-1-0.5-1.4-0.7c-0.4-0.2-0.9-0.4-1.7-0.7c-0.5-0.2-1-0.4-1.3-0.5
		c-0.3-0.1-0.8-0.3-1.3-0.6c-0.5-0.2-1-0.5-1.3-0.6c-0.3-0.2-0.7-0.5-1.2-0.8c-0.5-0.3-0.8-0.6-1.1-0.9c-0.3-0.3-0.6-0.6-0.9-1
		c-0.3-0.4-0.6-0.8-0.8-1.2c-0.2-0.4-0.3-0.9-0.5-1.4c-0.1-0.5-0.2-1.1-0.2-1.6c0-1.9,0.7-3.6,2.1-5.1c1.4-1.4,3.2-2.4,5.4-2.8v-3.7
		c0-0.2,0.1-0.3,0.2-0.5c0.2-0.2,0.3-0.2,0.5-0.2h2.8c0.2,0,0.3,0.1,0.5,0.2c0.1,0.1,0.2,0.3,0.2,0.5v3.7c0.8,0.1,1.6,0.2,2.3,0.5
		c0.8,0.2,1.4,0.5,1.8,0.7s0.9,0.5,1.3,0.8s0.7,0.5,0.8,0.6c0.1,0.1,0.2,0.2,0.3,0.3c0.2,0.3,0.3,0.5,0.1,0.8l-1.7,3.1
		c-0.1,0.2-0.3,0.3-0.5,0.3c-0.2,0-0.4,0-0.6-0.2c0,0-0.2-0.1-0.3-0.3c-0.2-0.1-0.4-0.3-0.8-0.6c-0.4-0.2-0.8-0.5-1.2-0.7
		c-0.4-0.2-0.9-0.4-1.6-0.5c-0.6-0.2-1.2-0.2-1.8-0.2c-1.3,0-2.4,0.3-3.3,0.9c-0.8,0.6-1.3,1.4-1.3,2.3c0,0.4,0.1,0.7,0.2,1
		c0.1,0.3,0.3,0.6,0.6,0.9c0.3,0.3,0.6,0.5,0.8,0.7c0.3,0.2,0.6,0.4,1.2,0.6c0.5,0.2,0.9,0.4,1.3,0.6s0.8,0.3,1.5,0.6
		c0.7,0.3,1.3,0.5,1.7,0.6s0.9,0.4,1.6,0.7c0.7,0.3,1.2,0.6,1.6,0.9s0.8,0.6,1.3,1.1c0.5,0.4,0.8,0.9,1.1,1.3s0.5,1,0.6,1.6
		C68,74.9,68.1,75.5,68.1,76.3z"/>
</g>
</svg>
