<?xml version="1.0" encoding="utf-8"?>
<!-- Generator: Adobe Illustrator 20.0.0, SVG Export Plug-In . SVG Version: 6.00 Build 0)  -->
<svg version="1.1" id="Layer_1" xmlns="http://www.w3.org/2000/svg" xmlns:xlink="http://www.w3.org/1999/xlink" x="0px" y="0px"
	 viewBox="0 0 100 100" style="enable-background:new 0 0 100 100;" xml:space="preserve">
<style type="text/css">
	.st0{fill:#FFFFFF;}
</style>
<g>
	<path class="st0" d="M47.8,18.9c1.4-0.8,2.9-1.3,4.5-1.3s3.2,0.5,4.5,1.3c1.4,0.8,2.5,2,3.2,3.5c0.5-0.1,1-0.1,1.5-0.1
		c2.4,0,4.4,0.8,6.1,2.5s2.5,3.8,2.5,6.2v0.6c2.5-0.1,4.7,0.6,6.5,2.3s2.7,3.8,2.7,6.4v18c0,1-0.1,1.9-0.3,3l-2.7,14.6
		c-0.3,1.9-1.2,3.5-2.8,4.7c-1.5,1.2-3.2,1.9-5.2,1.9H43.6c-1.4,0-2.9-0.3-4.1-1s-2.4-1.6-3.2-2.7l-14-18.6
		c-1.2-1.6-1.8-3.5-1.8-5.6c0-2.5,0.9-4.7,2.7-6.5s4-2.7,6.5-2.7c1.9,0,3.4,0.4,4.6,1.2V30.9c0-2.4,0.8-4.4,2.5-6.2
		c1.7-1.7,3.8-2.5,6.1-2.5c0.6,0,1,0.1,1.5,0.1C45.3,20.9,46.4,19.7,47.8,18.9z M55.2,23.4c-0.8-0.8-1.7-1.2-2.9-1.2
		c-1.1,0-2.1,0.4-2.9,1.2s-1.2,1.7-1.2,2.9V50H47V30.9c0-1.1-0.4-2.1-1.2-2.9s-1.7-1.2-2.9-1.2S40.8,27.2,40,28s-1.2,1.7-1.2,2.9V50
		v9.3l-5.6-7.4c-1-1.3-2.2-1.9-3.8-1.9c-1.3,0-2.4,0.5-3.2,1.4c-0.9,0.9-1.4,2-1.4,3.2c0,1,0.3,1.9,0.9,2.8l13.9,18.5
		c0.9,1.2,2.1,1.8,3.7,1.8h24.9c0.8,0,1.6-0.3,2.2-0.8s1-1.2,1.2-2l2.7-14.6c0.1-0.8,0.2-1.5,0.2-2.1v-18c0-1.1-0.4-2.1-1.2-2.9
		c-0.8-0.8-1.7-1.2-2.9-1.2c-1.1,0-2.1,0.4-2.9,1.2s-1.2,1.7-1.2,2.9V50h-1.2V30.9c0-1.1-0.4-2.1-1.2-2.9s-1.7-1.2-2.9-1.2
		s-2.1,0.4-2.9,1.2c-0.8,0.8-1.2,1.7-1.2,2.9V50h-1.2V26.3C56.3,25.2,55.9,24.2,55.2,23.4z"/>
</g>
<g>
	<path class="st0" d="M61.7,67c0,1.4-0.5,2.6-1.4,3.6s-2.1,1.6-3.5,1.8v2.4c0,0.1-0.1,0.2-0.1,0.3c-0.1,0.1-0.2,0.1-0.3,0.1h-1.8
		c-0.1,0-0.2-0.1-0.3-0.1c-0.1-0.1-0.1-0.2-0.1-0.3v-2.4c-0.6-0.1-1.2-0.2-1.7-0.4c-0.5-0.2-1-0.4-1.4-0.6s-0.7-0.4-1-0.6
		s-0.5-0.4-0.6-0.5s-0.2-0.2-0.3-0.3c-0.1-0.2-0.2-0.4,0-0.6l1.4-1.8c0.1-0.1,0.2-0.1,0.3-0.2c0.1,0,0.3,0,0.3,0.1l0,0
		c1,0.9,2.1,1.4,3.3,1.7c0.3,0.1,0.6,0.1,1,0.1c0.7,0,1.4-0.2,1.9-0.6s0.8-0.9,0.8-1.6c0-0.3-0.1-0.5-0.2-0.7s-0.3-0.4-0.5-0.6
		c-0.2-0.1-0.5-0.3-0.8-0.5c-0.4-0.2-0.6-0.3-0.9-0.5c-0.3-0.1-0.6-0.3-1.1-0.5c-0.3-0.1-0.6-0.3-0.8-0.3s-0.5-0.2-0.8-0.4
		c-0.3-0.1-0.6-0.3-0.8-0.4c-0.2-0.1-0.5-0.3-0.8-0.5s-0.5-0.4-0.7-0.6c-0.2-0.2-0.4-0.4-0.6-0.6c-0.2-0.3-0.4-0.5-0.5-0.8
		s-0.2-0.6-0.3-0.9c-0.1-0.3-0.1-0.7-0.1-1c0-1.2,0.5-2.3,1.4-3.3c0.9-0.9,2.1-1.6,3.5-1.8v-2.4c0-0.1,0.1-0.2,0.1-0.3
		c0.1-0.1,0.2-0.1,0.3-0.1h1.8c0.1,0,0.2,0.1,0.3,0.1c0.1,0.1,0.1,0.2,0.1,0.3v2.4c0.5,0.1,1,0.1,1.5,0.3c0.5,0.1,0.9,0.3,1.2,0.5
		c0.3,0.1,0.6,0.3,0.8,0.5s0.5,0.3,0.5,0.4c0.1,0.1,0.1,0.1,0.2,0.2c0.1,0.2,0.2,0.3,0.1,0.5l-1.1,2c-0.1,0.1-0.2,0.2-0.3,0.2
		s-0.3,0-0.4-0.1c0,0-0.1-0.1-0.2-0.2c-0.1-0.1-0.3-0.2-0.5-0.4c-0.3-0.1-0.5-0.3-0.8-0.5s-0.6-0.3-1-0.3c-0.4-0.1-0.8-0.1-1.2-0.1
		c-0.8,0-1.6,0.2-2.1,0.6c-0.5,0.4-0.8,0.9-0.8,1.5c0,0.3,0.1,0.5,0.1,0.6c0.1,0.2,0.2,0.4,0.4,0.6c0.2,0.2,0.4,0.3,0.5,0.5
		c0.2,0.1,0.4,0.3,0.8,0.4c0.3,0.1,0.6,0.3,0.8,0.4c0.3,0.1,0.5,0.2,1,0.4s0.8,0.3,1.1,0.4c0.3,0.1,0.6,0.3,1,0.5
		c0.5,0.2,0.8,0.4,1,0.6c0.3,0.2,0.5,0.4,0.8,0.7s0.5,0.6,0.7,0.8s0.3,0.6,0.4,1C61.6,66.1,61.7,66.5,61.7,67z"/>
</g>
</svg>
