<?xml version="1.0" encoding="utf-8"?>
<!-- Generator: Adobe Illustrator 20.0.0, SVG Export Plug-In . SVG Version: 6.00 Build 0)  -->
<svg version="1.1" id="Layer_1" xmlns="http://www.w3.org/2000/svg" xmlns:xlink="http://www.w3.org/1999/xlink" x="0px" y="0px"
	 viewBox="0 0 100 100" style="enable-background:new 0 0 100 100;" xml:space="preserve">
<style type="text/css">
	.st0{enable-background:new    ;}
	.st1{fill:#FFFFFF;}
</style>
<g class="st0">
	<path class="st1" d="M83.4,52.2l-2.6,3.1c-0.2,0.3-0.5,0.4-0.9,0.5h-0.1c-0.4,0-0.7-0.1-0.9-0.3L49.6,31.1L20.4,55.5
		c-0.3,0.2-0.7,0.3-1,0.3c-0.4-0.1-0.7-0.2-0.9-0.5l-2.6-3.1c-0.2-0.3-0.3-0.6-0.3-1s0.2-0.7,0.5-0.9L46.4,25c0.9-0.7,2-1.1,3.2-1.1
		s2.3,0.4,3.2,1.1l10.3,8.6v-8.2c0-0.4,0.1-0.7,0.4-1c0.3-0.3,0.6-0.4,1-0.4h8.1c0.4,0,0.7,0.1,1,0.4s0.4,0.6,0.4,1v17.2l9.3,7.7
		c0.3,0.2,0.4,0.5,0.5,0.9C83.7,51.6,83.6,51.9,83.4,52.2z M74,55.1v20.3c0,0.7-0.3,1.4-0.8,1.9s-1.2,0.8-1.9,0.8H55V61.9H44.2v16.2
		H28c-0.7,0-1.4-0.3-1.9-0.8s-0.8-1.2-0.8-1.9V55.1V55c0-0.1,0-0.1,0-0.1l24.3-20l24.3,20C74,54.9,74,55,74,55.1z"/>
</g>
</svg>
