<?xml version="1.0" encoding="utf-8"?>
<!-- Generator: Adobe Illustrator 20.0.0, SVG Export Plug-In . SVG Version: 6.00 Build 0)  -->
<svg version="1.1" id="Layer_1" xmlns="http://www.w3.org/2000/svg" xmlns:xlink="http://www.w3.org/1999/xlink" x="0px" y="0px"
	 viewBox="0 0 100 100" style="enable-background:new 0 0 100 100;" xml:space="preserve">
<style type="text/css">
	.st0{fill:#FFFFFF;}
</style>
<g>
	<g>
		<path class="st0" d="M87.5,37.5c0,0.5-0.2,0.8-0.7,1L50.3,50c-0.1,0-0.2,0-0.3,0s-0.2,0-0.3,0l-21.2-6.7c-0.9,0.7-1.7,1.9-2.3,3.6
			c-0.6,1.7-1,3.6-1.1,5.8c1.4,0.8,2.1,2,2.1,3.5s-0.6,2.7-1.9,3.5l1.9,14.1c0,0.3,0,0.6-0.3,0.8C26.6,74.9,26.4,75,26,75h-6.3
			c-0.3,0-0.6-0.1-0.8-0.4c-0.2-0.2-0.3-0.5-0.3-0.8l1.9-14.1c-1.3-0.8-1.9-2-1.9-3.5c0-1.6,0.7-2.8,2.1-3.6
			c0.2-4.5,1.3-8.1,3.2-10.7l-10.8-3.4c-0.5-0.2-0.7-0.5-0.7-1s0.2-0.8,0.7-1L49.7,25c0.1,0,0.2,0,0.3,0s0.2,0,0.3,0l36.5,11.5
			C87.3,36.7,87.5,37,87.5,37.5z M70.3,48l0.6,10.3c0.1,1.5-0.8,2.9-2.7,4.2c-1.9,1.3-4.4,2.3-7.7,3c-3.2,0.8-6.7,1.1-10.5,1.1
			s-7.3-0.4-10.5-1.1s-5.8-1.8-7.7-3c-1.9-1.3-2.8-2.7-2.7-4.2L29.8,48l18.7,5.9c0.5,0.2,1,0.2,1.6,0.2s1.1-0.1,1.6-0.2L70.3,48z"/>
	</g>
	<g>
		<path class="st0" d="M54.2,40.1c0,0.9-0.3,1.6-0.9,2.3c-0.6,0.6-1.3,1-2.2,1.2V45c0,0.1,0,0.1-0.1,0.2c0,0-0.1,0.1-0.2,0.1h-1.2
			c-0.1,0-0.1,0-0.2-0.1c-0.1-0.1-0.1-0.1-0.1-0.2v-1.5c-0.4,0-0.7-0.1-1.1-0.3c-0.3-0.1-0.6-0.2-0.9-0.4c-0.2-0.1-0.4-0.3-0.6-0.4
			c-0.2-0.1-0.3-0.2-0.4-0.3c-0.1-0.1-0.1-0.1-0.2-0.2c-0.1-0.1-0.1-0.2,0-0.4l0.9-1.2c0-0.1,0.1-0.1,0.2-0.1s0.2,0,0.2,0.1l0,0
			c0.7,0.6,1.3,0.9,2.1,1.1c0.2,0,0.4,0.1,0.6,0.1c0.5,0,0.9-0.1,1.2-0.4c0.4-0.2,0.5-0.6,0.5-1c0-0.2,0-0.3-0.1-0.5
			c-0.1-0.1-0.2-0.3-0.3-0.4c-0.1-0.1-0.3-0.2-0.5-0.3s-0.4-0.2-0.6-0.3c-0.2-0.1-0.4-0.2-0.7-0.3c-0.2-0.1-0.4-0.2-0.5-0.2
			s-0.3-0.1-0.5-0.2c-0.2-0.1-0.4-0.2-0.5-0.3s-0.3-0.2-0.5-0.3s-0.3-0.2-0.5-0.4c-0.1-0.1-0.2-0.3-0.4-0.4
			c-0.1-0.2-0.2-0.3-0.3-0.5s-0.1-0.4-0.2-0.6c0-0.2-0.1-0.4-0.1-0.7c0-0.8,0.3-1.5,0.8-2.1c0.6-0.6,1.3-1,2.2-1.1V30
			c0-0.1,0-0.1,0.1-0.2s0.1-0.1,0.2-0.1h1.2c0.1,0,0.1,0,0.2,0.1c0,0,0.1,0.1,0.1,0.2v1.5c0.3,0,0.6,0.1,0.9,0.2
			c0.3,0.1,0.6,0.2,0.7,0.3c0.2,0.1,0.4,0.2,0.5,0.3c0.2,0.1,0.3,0.2,0.3,0.2l0.1,0.1c0.1,0.1,0.1,0.2,0,0.3l-0.7,1.3
			c0,0.1-0.1,0.1-0.2,0.1c-0.1,0-0.2,0-0.2-0.1c0,0-0.1,0-0.1-0.1c-0.1,0-0.2-0.1-0.3-0.2c-0.2-0.1-0.3-0.2-0.5-0.3
			s-0.4-0.2-0.6-0.2c-0.2-0.1-0.5-0.1-0.7-0.1c-0.5,0-1,0.1-1.3,0.4s-0.5,0.6-0.5,0.9c0,0.2,0,0.3,0.1,0.4c0,0.1,0.1,0.2,0.2,0.4
			c0.1,0.1,0.2,0.2,0.3,0.3s0.3,0.2,0.5,0.3s0.4,0.2,0.5,0.2c0.1,0.1,0.3,0.1,0.6,0.2c0.3,0.1,0.5,0.2,0.7,0.3s0.4,0.2,0.7,0.3
			s0.5,0.2,0.7,0.4c0.2,0.1,0.3,0.2,0.5,0.4s0.3,0.4,0.5,0.5c0.1,0.2,0.2,0.4,0.3,0.7C54.2,39.5,54.2,39.8,54.2,40.1z"/>
	</g>
</g>
</svg>
