<?xml version="1.0" encoding="utf-8"?>
<!-- Generator: Adobe Illustrator 20.0.0, SVG Export Plug-In . SVG Version: 6.00 Build 0)  -->
<svg version="1.1" id="Layer_1" xmlns="http://www.w3.org/2000/svg" xmlns:xlink="http://www.w3.org/1999/xlink" x="0px" y="0px"
	 viewBox="0 0 100 100" style="enable-background:new 0 0 100 100;" xml:space="preserve">
<style type="text/css">
	.st0{fill:#FFFFFF;}
</style>
<path class="st0" d="M76.2,34.7c0,5.3-1.8,9.9-5.3,13.7c-1.5,1.7-2.8,3.2-3.8,4.5s-2,2.9-3,4.9s-1.6,3.8-1.7,5.5
	c1.6,1,2.4,2.4,2.4,4.2c0,1.3-0.4,2.4-1.3,3.3c0.9,0.9,1.3,2,1.3,3.3c0,1.8-0.8,3.2-2.3,4.1c0.4,0.8,0.7,1.6,0.7,2.4
	c0,1.6-0.5,2.8-1.6,3.6c-1.1,0.9-2.4,1.3-4,1.3c-0.7,1.5-1.7,2.7-3.1,3.6c-1.4,0.9-2.9,1.3-4.5,1.3s-3.1-0.4-4.5-1.3
	s-2.4-2.1-3.1-3.6c-1.6,0-2.9-0.4-4-1.3s-1.6-2.1-1.6-3.6c0-0.8,0.2-1.6,0.7-2.4c-1.5-1-2.3-2.4-2.3-4.1c0-1.3,0.4-2.4,1.3-3.3
	c-0.9-0.9-1.3-2-1.3-3.3c0-1.8,0.8-3.2,2.4-4.2c-0.1-1.7-0.7-3.5-1.7-5.5s-2-3.6-3-4.9c-1-1.3-2.3-2.8-3.8-4.5
	c-3.5-3.9-5.3-8.4-5.3-13.7c0-3.4,0.8-6.5,2.3-9.4s3.5-5.3,6-7.3c2.5-1.9,5.3-3.4,8.4-4.6c3.1-1.1,6.3-1.7,9.6-1.7
	c3.2,0,6.4,0.6,9.6,1.7c3.1,1.1,5.9,2.6,8.4,4.6c2.5,1.9,4.5,4.4,6,7.3C75.5,28.1,76.2,31.3,76.2,34.7z M69.7,34.7
	c0-2.5-0.6-4.7-1.8-6.9c-1.2-2.1-2.7-3.8-4.6-5.2c-1.9-1.3-4-2.4-6.3-3.2s-4.6-1.2-7-1.2s-4.7,0.4-7,1.2s-4.4,1.8-6.3,3.2
	c-1.9,1.3-3.4,3.1-4.6,5.2c-1.2,2.1-1.8,4.4-1.8,6.9c0,3.4,1.2,6.5,3.5,9.2c0.3,0.4,0.9,0.9,1.6,1.7c0.7,0.8,1.2,1.3,1.6,1.7
	c4.4,5.2,6.8,10.3,7.2,15.3h11.7c0.4-5,2.9-10,7.2-15.3c0.3-0.4,0.9-0.9,1.6-1.7s1.2-1.3,1.6-1.7C68.5,41.2,69.7,38.1,69.7,34.7z
	 M61.5,34.7c0,0.4-0.2,0.8-0.5,1.2c-0.3,0.3-0.7,0.5-1.2,0.5s-0.8-0.2-1.2-0.5c-0.3-0.3-0.5-0.7-0.5-1.2c0-1.6-0.9-2.8-2.8-3.6
	c-1.8-0.9-3.7-1.3-5.4-1.3c-0.4,0-0.8-0.2-1.2-0.5c-0.3-0.3-0.5-0.7-0.5-1.2c0-0.4,0.2-0.8,0.5-1.2c0.3-0.3,0.7-0.5,1.2-0.5
	c1.7,0,3.4,0.3,5.1,0.8c1.7,0.5,3.2,1.5,4.5,2.8C60.8,31.3,61.5,32.9,61.5,34.7z"/>
</svg>
