<?xml version="1.0" encoding="utf-8"?>
<!-- Generator: Adobe Illustrator 20.0.0, SVG Export Plug-In . SVG Version: 6.00 Build 0)  -->
<svg version="1.1" id="Layer_1" xmlns="http://www.w3.org/2000/svg" xmlns:xlink="http://www.w3.org/1999/xlink" x="0px" y="0px"
	 viewBox="0 0 100 100" style="enable-background:new 0 0 100 100;" xml:space="preserve">
<style type="text/css">
	.st0{stroke:#FFFFFF;stroke-miterlimit:10;}
</style>
<g>
	<g>
		<path d="M81.3,67.9V83c0,0.4-0.1,0.7-0.4,0.9c-0.2,0.2-0.5,0.4-0.9,0.4h-3.8v5.1c0,2.1-0.7,3.9-2.2,5.4c-1.5,1.5-3.3,2.2-5.4,2.2
			c-2.1,0-3.9-0.7-5.4-2.2c-1.5-1.5-2.2-3.3-2.2-5.4v-5.1H20.7v5.1c0,2.1-0.7,3.9-2.2,5.4c-1.5,1.5-3.3,2.2-5.4,2.2
			s-3.9-0.7-5.4-2.2c-1.5-1.5-2.2-3.3-2.2-5.4v-5.1H1.7c-0.4,0-0.7-0.1-0.9-0.4c-0.2-0.2-0.4-0.5-0.4-0.9V67.9
			c0-2.5,0.9-4.5,2.6-6.3S6.9,59,9.3,59h1.1l4.1-16.6c0.6-2.5,2-4.5,4.1-6.2c2.1-1.7,4.5-2.5,7.1-2.5h30.3c2.6,0,4.9,0.8,7.1,2.5
			c2.1,1.7,3.5,3.7,4.1,6.2L71.4,59h1.1c2.5,0,4.5,0.9,6.3,2.6C80.5,63.3,81.3,65.4,81.3,67.9z M17.6,76.1c1.2-1.2,1.9-2.7,1.9-4.5
			s-0.6-3.2-1.9-4.5s-2.7-1.9-4.5-1.9c-1.7,0-3.2,0.6-4.5,1.9s-1.9,2.7-1.9,4.5s0.6,3.2,1.9,4.5c1.2,1.2,2.7,1.9,4.5,1.9
			C14.8,78,16.3,77.4,17.6,76.1z M20.8,59H61l-3.5-14.1c-0.1-0.2-0.2-0.4-0.6-0.7c-0.3-0.3-0.6-0.4-0.8-0.4H25.7
			c-0.2,0-0.5,0.1-0.8,0.4c-0.3,0.2-0.5,0.5-0.6,0.7L20.8,59z M73.2,76.1c1.2-1.2,1.9-2.7,1.9-4.5s-0.6-3.2-1.9-4.5
			s-2.7-1.9-4.5-1.9c-1.7,0-3.2,0.6-4.5,1.9s-1.9,2.7-1.9,4.5s0.6,3.2,1.9,4.5c1.2,1.2,2.7,1.9,4.5,1.9C70.4,78,71.9,77.4,73.2,76.1
			z"/>
	</g>
	<g>
		<path class="st0" d="M79.8,10.8l12,12L67.8,46.9h-12v-12L79.8,10.8z M66.2,43.2l2.6-2.6l-6.8-6.8l-2.6,2.6v3.1h3.7v3.7H66.2z
			 M81.3,16.3c0-0.4-0.2-0.6-0.6-0.6c-0.2,0-0.4,0.1-0.5,0.2L64.5,31.6c-0.1,0.1-0.2,0.3-0.2,0.5c0,0.4,0.2,0.6,0.6,0.6
			c0.2,0,0.4-0.1,0.5-0.2l15.7-15.7C81.3,16.7,81.3,16.5,81.3,16.3z M99.5,13.6c0,1-0.4,1.9-1.1,2.6L93.7,21l-12-12l4.8-4.8
			C87.1,3.4,88,3.1,89,3.1c1,0,1.9,0.4,2.6,1.1l6.8,6.8C99.2,11.7,99.5,12.6,99.5,13.6z"/>
	</g>
</g>
</svg>
