<?xml version="1.0" encoding="utf-8"?>
<!-- Generator: Adobe Illustrator 20.0.0, SVG Export Plug-In . SVG Version: 6.00 Build 0)  -->
<svg version="1.1" id="Layer_1" xmlns="http://www.w3.org/2000/svg" xmlns:xlink="http://www.w3.org/1999/xlink" x="0px" y="0px"
	 viewBox="0 0 100 100" style="enable-background:new 0 0 100 100;" xml:space="preserve">
<style type="text/css">
	.st0{fill:#FFFFFF;}
</style>
<g>
	<g>
		<path class="st0" d="M70,61.5v9.7c0,0.3-0.1,0.4-0.3,0.6c-0.1,0.1-0.3,0.3-0.6,0.3h-2.4v3.3c0,1.3-0.4,2.5-1.4,3.5
			s-2.1,1.4-3.5,1.4c-1.3,0-2.5-0.4-3.5-1.4S57,76.6,57,75.3V72H31.2v3.3c0,1.3-0.4,2.5-1.4,3.5s-2.1,1.4-3.5,1.4s-2.5-0.4-3.5-1.4
			s-1.4-2.1-1.4-3.5V72H19c-0.3,0-0.4-0.1-0.6-0.3c-0.1-0.1-0.3-0.3-0.3-0.6v-9.7c0-1.6,0.6-2.9,1.7-4c1.1-1.2,2.5-1.7,4-1.7h0.7
			l2.6-10.6c0.4-1.6,1.3-2.9,2.6-4c1.3-1.1,2.9-1.6,4.5-1.6h19.4c1.7,0,3.1,0.5,4.5,1.6c1.3,1.1,2.2,2.4,2.6,4l2.7,10.6h0.7
			c1.6,0,2.9,0.6,4,1.7C69.5,58.5,70,59.9,70,61.5z M29.2,66.7c0.8-0.8,1.2-1.7,1.2-2.9c0-1.2-0.4-2.1-1.2-2.9
			c-0.8-0.8-1.7-1.2-2.9-1.2c-1.1,0-2.1,0.4-2.9,1.2s-1.2,1.7-1.2,2.9c0,1.2,0.4,2.1,1.2,2.9c0.8,0.8,1.7,1.2,2.9,1.2
			C27.4,68,28.4,67.6,29.2,66.7z M31.3,55.8H57l-2.2-9c-0.1-0.1-0.1-0.3-0.4-0.4C54.2,46.1,54,46,53.9,46H34.4
			c-0.1,0-0.3,0.1-0.5,0.3c-0.2,0.1-0.3,0.3-0.4,0.4L31.3,55.8z M64.8,66.7c0.8-0.8,1.2-1.7,1.2-2.9c0-1.2-0.4-2.1-1.2-2.9
			c-0.8-0.8-1.7-1.2-2.9-1.2c-1.1,0-2.1,0.4-2.9,1.2c-0.8,0.8-1.2,1.7-1.2,2.9c0,1.2,0.4,2.1,1.2,2.9s1.7,1.2,2.9,1.2
			C63.1,68,64,67.6,64.8,66.7z"/>
	</g>
	<g>
		<path class="st0" d="M69.1,24.9l7.7,7.7L61.4,48h-7.7v-7.7L69.1,24.9z M60.4,45.7L62,44l-4.4-4.4L56,41.3v2h2.4v2.4H60.4z
			 M70,28.4c0-0.3-0.1-0.4-0.4-0.4c-0.1,0-0.3,0.1-0.3,0.1l-10,10.1c-0.1,0.1-0.1,0.2-0.1,0.3c0,0.3,0.1,0.4,0.4,0.4
			c0.1,0,0.3-0.1,0.3-0.1L70,28.7C70,28.7,70,28.6,70,28.4z M81.7,26.7c0,0.6-0.3,1.2-0.7,1.7l-3,3.1l-7.7-7.7l3.1-3.1
			c0.4-0.5,1-0.7,1.6-0.7s1.2,0.3,1.7,0.7L81,25C81.5,25.5,81.7,26.1,81.7,26.7z"/>
	</g>
</g>
</svg>
