<?xml version="1.0" encoding="utf-8"?>
<!-- Generator: Adobe Illustrator 20.0.0, SVG Export Plug-In . SVG Version: 6.00 Build 0)  -->
<svg version="1.1" id="Layer_1" xmlns="http://www.w3.org/2000/svg" xmlns:xlink="http://www.w3.org/1999/xlink" x="0px" y="0px"
	 viewBox="0 0 100 100" style="enable-background:new 0 0 100 100;" xml:space="preserve">
<style type="text/css">
	.st0{enable-background:new    ;}
	.st1{fill:#FFFFFF;}
</style>
<g class="st0">
	<path class="st1" d="M88.7,39.8v16.1c0,0.5-0.2,0.9-0.5,1.2s-0.7,0.5-1.2,0.5h-4.8v20.9c0,1.3-0.5,2.5-1.4,3.4s-2.1,1.4-3.4,1.4
		H22.6c-1.3,0-2.5-0.5-3.4-1.4s-1.4-2.1-1.4-3.4v-21H13c-0.5,0-0.9-0.2-1.2-0.5s-0.5-0.7-0.5-1.2v-16c0-0.5,0.2-0.9,0.5-1.2
		s0.7-0.5,1.2-0.5h22.2c-3.1,0-5.8-1.1-8-3.3s-3.3-4.9-3.3-8s1.1-5.8,3.3-8s4.9-3.3,8-3.3c3.6,0,6.4,1.3,8.5,3.9l6.4,8.3l6.4-8.3
		c2-2.6,4.9-3.9,8.5-3.9c3.1,0,5.8,1.1,8,3.3s3.3,4.9,3.3,8s-1.1,5.8-3.3,8c-2.2,2.2-4.9,3.3-8,3.3h22c0.5,0,0.9,0.2,1.2,0.5
		C88.5,38.9,88.7,39.3,88.7,39.8z M35.1,31.7h9.8l-6.3-8.1c-0.9-1-2-1.6-3.5-1.6c-1.3,0-2.5,0.5-3.4,1.4s-1.4,2.1-1.4,3.4
		s0.5,2.5,1.4,3.4C32.6,31.2,33.8,31.7,35.1,31.7z M58.1,74.2v-2.8V47.8v-9.7H41.9v9.7v23.6v2.8c0,0.8,0.3,1.5,0.9,1.9
		s1.4,0.7,2.3,0.7h9.7c0.9,0,1.7-0.2,2.3-0.7C57.8,75.7,58.1,75,58.1,74.2z M68.3,30.3c0.9-0.9,1.4-2.1,1.4-3.4s-0.5-2.5-1.4-3.4
		s-2.1-1.4-3.4-1.4c-1.4,0-2.6,0.5-3.5,1.6l-6.3,8.1h9.8C66.2,31.7,67.4,31.2,68.3,30.3z"/>
</g>
</svg>
