<?xml version="1.0" encoding="utf-8"?>
<!-- Generator: Adobe Illustrator 20.0.0, SVG Export Plug-In . SVG Version: 6.00 Build 0)  -->
<svg version="1.1" id="Layer_1" xmlns="http://www.w3.org/2000/svg" xmlns:xlink="http://www.w3.org/1999/xlink" x="0px" y="0px"
	 viewBox="0 0 100 100" style="enable-background:new 0 0 100 100;" xml:space="preserve">
<g>
	<path d="M75.8,66c0,5.6-1.8,10.5-5.5,14.6c-3.7,4.1-8.4,6.6-14.3,7.5v9.7c0,0.5-0.2,0.9-0.5,1.3c-0.3,0.3-0.8,0.5-1.3,0.5h-7.5
		c-0.5,0-0.9-0.2-1.2-0.5c-0.4-0.4-0.5-0.8-0.5-1.2v-9.7c-2.4-0.3-4.8-0.9-7-1.7s-4.1-1.6-5.6-2.5c-1.5-0.8-2.8-1.7-4.1-2.7
		c-1.3-0.9-2.1-1.6-2.6-2.1c-0.5-0.4-0.8-0.8-1-1c-0.6-0.8-0.7-1.5-0.1-2.3l5.7-7.5c0.3-0.4,0.7-0.6,1.3-0.7c0.6-0.1,1,0.1,1.3,0.5
		l0.1,0.1c4.2,3.6,8.6,5.9,13.4,6.9c1.4,0.3,2.7,0.4,4.1,0.4c3,0,5.6-0.8,7.9-2.4c2.3-1.6,3.4-3.8,3.4-6.7c0-1-0.3-2-0.8-2.9
		c-0.6-0.9-1.2-1.7-1.8-2.3c-0.7-0.6-1.8-1.3-3.2-2.1c-1.5-0.8-2.7-1.3-3.6-1.8c-1-0.4-2.4-1-4.4-1.8c-1.4-0.6-2.6-1-3.4-1.4
		c-0.8-0.3-2-0.8-3.4-1.5c-1.4-0.6-2.6-1.2-3.5-1.7c-0.9-0.5-1.9-1.2-3.1-2c-1.2-0.8-2.2-1.6-3-2.3c-0.8-0.8-1.6-1.7-2.4-2.7
		c-0.8-1.1-1.5-2.1-2-3.2c-0.5-1.1-0.8-2.3-1.2-3.7c-0.3-1.4-0.5-2.8-0.5-4.3c0-5.1,1.8-9.5,5.4-13.4c3.6-3.8,8.3-6.3,14.1-7.4V2.3
		c0-0.5,0.2-0.9,0.5-1.2c0.4-0.4,0.8-0.5,1.2-0.5h7.5c0.5,0,0.9,0.2,1.3,0.5C55.8,1.3,56,1.8,56,2.3V12c2.1,0.2,4.1,0.6,6.1,1.3
		c2,0.6,3.6,1.2,4.8,1.8c1.2,0.6,2.4,1.3,3.5,2.1c1.1,0.8,1.8,1.3,2.2,1.6c0.3,0.3,0.6,0.6,0.8,0.8c0.6,0.7,0.7,1.4,0.3,2.1
		l-4.5,8.1c-0.3,0.6-0.7,0.8-1.3,0.9c-0.5,0.1-1,0-1.5-0.4c-0.1-0.1-0.4-0.3-0.8-0.7c-0.4-0.3-1.1-0.8-2.2-1.5
		c-1-0.6-2.1-1.2-3.2-1.8c-1.1-0.5-2.5-1-4.1-1.4c-1.6-0.4-3.2-0.6-4.7-0.6c-3.5,0-6.4,0.8-8.6,2.4c-2.2,1.6-3.3,3.6-3.3,6.1
		c0,1,0.2,1.8,0.5,2.6c0.3,0.8,0.9,1.6,1.6,2.3c0.8,0.7,1.5,1.3,2.2,1.8s1.7,1.1,3.1,1.7c1.4,0.6,2.5,1.1,3.3,1.5
		c0.8,0.4,2.1,0.9,3.9,1.5c1.9,0.7,3.4,1.3,4.5,1.7s2.4,1.1,4.2,1.9c1.8,0.9,3.2,1.6,4.2,2.3c1,0.7,2.2,1.6,3.4,2.8
		c1.3,1.1,2.2,2.3,2.9,3.5c0.7,1.2,1.3,2.6,1.7,4.2C75.5,62.4,75.8,64.1,75.8,66z"/>
</g>
</svg>
