<?xml version="1.0" encoding="utf-8"?>
<!-- Generator: Adobe Illustrator 20.0.0, SVG Export Plug-In . SVG Version: 6.00 Build 0)  -->
<svg version="1.1" id="Layer_1" xmlns="http://www.w3.org/2000/svg" xmlns:xlink="http://www.w3.org/1999/xlink" x="0px" y="0px"
	 viewBox="0 0 100 100" style="enable-background:new 0 0 100 100;" xml:space="preserve">
<style type="text/css">
	.st0{clip-path:url(#SVGID_2_);}
</style>
<g>
	<defs>
		<rect id="SVGID_1_" x="12.1" y="0.2" width="75.8" height="99.7"/>
	</defs>
	<clipPath id="SVGID_2_">
		<use xlink:href="#SVGID_1_"  style="overflow:visible;"/>
	</clipPath>
	<path class="st0" d="M64.4,18c-0.9,0.6-2,0.7-3,0.7c-2,0.2-4.1,0.3-6.3,0.4c3.9,8.1,10.4,12.9,18.9,15.2c-0.8,1.2-2,2-3.2,2.7
		c-2.7,1.6-5.8,2.4-8.8,3c-0.6,0.1-1.2,0.3-1.9,0.4c0.6,0.9,1.1,1.9,1.8,2.7c1.2,1.5,2.4,3,3.8,4.3c1.6,1.4,3.3,2.7,5,3.9
		c3.6,2.4,7.6,4.1,11.9,5.6c-0.7,0.7-1.3,1.4-2,1.9c-3,2.1-6.3,3.4-9.9,4.2c-1.4,0.3-2.8,0.6-4.3,0.9c-0.1,0-0.2,0.1-0.4,0.2
		c6.3,6,13.8,9.6,21.9,12c-0.6,1-1.4,1.8-2.4,2.4c-3.1,2.2-6.5,3.8-10.2,4.6c-3.1,0.7-6.3,0.6-9.4-0.1c-3.1-0.7-6.1-1.8-9-2.9
		c-0.9-0.3-1.8-0.6-2.7-0.9c-0.9-0.3-1-0.3-1.1,0.7c-0.1,1,0.2,2.8,1.3,3.2c0.7,0.3,1.5,0.4,2.3,0.5c1.2,0.1,1.7,0.5,1.4,1.7
		c-0.5,3.2-1.1,6.3-1.7,9.5c-0.3,1.5-0.5,2.9-0.8,4.4c-0.1,0.4-0.2,0.6-0.6,0.6c-2.9,0-5.9,0-8.8,0c-0.4,0-0.8-0.1-1.3-0.1
		c-0.2-1.2-0.5-2.4-0.7-3.6c-0.6-3.3-1.1-6.5-1.7-9.8c-0.1-0.5-0.2-1.1-0.2-1.6c-0.1-0.4,0.1-0.8,0.6-0.9c0.7-0.1,1.4-0.2,2.1-0.3
		c1.8-0.3,3-2.3,2.3-4.1c-0.1-0.3-0.3-0.5-0.7-0.3c-1.8,0.7-3.7,1.4-5.5,2c-2.9,1.1-5.8,2.2-9,2.2c-2.1,0-4.3,0.2-6.4-0.1
		c-1.7-0.2-3.4-0.9-5-1.5c-3.2-1.2-6-3-8.7-5c-0.1,0-0.1-0.1-0.2-0.2c7.2-2.6,14.3-5.5,20.3-10.4c0.8-0.7,1.6-1.4,2.5-2.2
		c-6.2-0.9-11.8-3-17-6.6c0.9-0.4,1.7-0.8,2.4-1.1c3.5-1.3,6.9-3,10-5.1c2.5-1.7,4.9-3.5,6.8-5.8c1.2-1.4,2.2-3,3.3-4.5
		c0,0,0-0.1,0-0.2c-4.8-1.2-9.7-2.2-13.6-5.8c0.8-0.4,1.5-0.7,2.3-1c3.4-1.3,6.5-3.1,9.2-5.5c2.6-2.3,4.7-5,6.5-8
		c0.2-0.4,0.4-0.8,0.6-1.2c-3.1-0.5-6.3,0.3-9.5-0.8c3.3-2.4,6-5,8.2-8.2c2.1-3.1,4-6.4,6.1-9.8c0.5,1,1.1,1.9,1.6,2.9
		c1.9,3.7,4.1,7.2,7,10.2C60.8,14.9,62.3,16.8,64.4,18"/>
</g>
</svg>
