<?xml version="1.0" encoding="utf-8"?>
<!-- Generator: Adobe Illustrator 20.0.0, SVG Export Plug-In . SVG Version: 6.00 Build 0)  -->
<svg version="1.1" id="Layer_1" xmlns="http://www.w3.org/2000/svg" xmlns:xlink="http://www.w3.org/1999/xlink" x="0px" y="0px"
	 viewBox="0 0 100 100" style="enable-background:new 0 0 100 100;" xml:space="preserve">
<style type="text/css">
	.st0{fill:#FFFFFF;}
</style>
<g>
	<path class="st0" d="M61,25.5C60.3,26,59.5,26,58.7,26c-1.5,0.2-3.1,0.2-4.8,0.3c3,6.2,8,9.9,14.5,11.6c-0.6,0.9-1.5,1.5-2.4,2.1
		c-2.1,1.2-4.4,1.8-6.7,2.3c-0.5,0.1-0.9,0.2-1.5,0.3c0.5,0.7,0.8,1.5,1.4,2.1C60,45.9,60.9,47,62,48c1.2,1.1,2.5,2.1,3.8,3
		c2.8,1.8,5.8,3.1,9.1,4.3c-0.5,0.5-1,1.1-1.5,1.5c-2.3,1.6-4.8,2.6-7.6,3.2c-1.1,0.2-2.1,0.5-3.3,0.7c-0.1,0-0.2,0.1-0.3,0.2
		c4.8,4.6,10.6,7.3,16.8,9.2c-0.5,0.8-1.1,1.4-1.8,1.8c-2.4,1.7-5,2.9-7.8,3.5c-2.4,0.5-4.8,0.5-7.2-0.1c-2.4-0.5-4.7-1.4-6.9-2.2
		c-0.7-0.2-1.4-0.5-2.1-0.7s-0.8-0.2-0.8,0.5c-0.1,0.8,0.2,2.1,1,2.4c0.5,0.2,1.1,0.3,1.8,0.4c0.9,0.1,1.3,0.4,1.1,1.3
		c-0.4,2.4-0.8,4.8-1.3,7.3c-0.2,1.1-0.4,2.2-0.6,3.4c-0.1,0.3-0.2,0.5-0.5,0.5c-2.2,0-4.5,0-6.7,0c-0.3,0-0.6-0.1-1-0.1
		c-0.2-0.9-0.4-1.8-0.5-2.8c-0.5-2.5-0.8-5-1.3-7.5c-0.1-0.4-0.2-0.8-0.2-1.2c-0.1-0.3,0.1-0.6,0.5-0.7c0.5-0.1,1.1-0.2,1.6-0.2
		c1.4-0.2,2.3-1.8,1.8-3.1c-0.1-0.2-0.2-0.4-0.5-0.2c-1.4,0.5-2.8,1.1-4.2,1.5c-2.2,0.8-4.4,1.7-6.9,1.7c-1.6,0-3.3,0.2-4.9-0.1
		c-1.3-0.2-2.6-0.7-3.8-1.1c-2.4-0.9-4.6-2.3-6.7-3.8c-0.1,0-0.1-0.1-0.2-0.2c5.5-2,10.9-4.2,15.5-8c0.6-0.5,1.2-1.1,1.9-1.7
		c-4.7-0.7-9-2.3-13-5.1c0.7-0.3,1.3-0.6,1.8-0.8c2.7-1,5.3-2.3,7.7-3.9c1.9-1.3,3.7-2.7,5.2-4.4c0.9-1.1,1.7-2.3,2.5-3.4
		c0,0,0-0.1,0-0.2c-3.7-0.9-7.4-1.7-10.4-4.4c0.6-0.3,1.1-0.5,1.8-0.8c2.6-1,5-2.4,7-4.2s3.6-3.8,5-6.1c0.2-0.3,0.3-0.6,0.5-0.9
		c-2.4-0.4-4.8,0.2-7.3-0.6c2.5-1.8,4.6-3.8,6.3-6.3c1.6-2.4,3.1-4.9,4.7-7.5c0.4,0.8,0.8,1.5,1.2,2.2c1.5,2.8,3.1,5.5,5.4,7.8
		C58.3,23.2,59.4,24.6,61,25.5"/>
</g>
</svg>
