<?xml version="1.0" encoding="utf-8"?>
<!-- Generator: Adobe Illustrator 20.0.0, SVG Export Plug-In . SVG Version: 6.00 Build 0)  -->
<svg version="1.1" id="Layer_1" xmlns="http://www.w3.org/2000/svg" xmlns:xlink="http://www.w3.org/1999/xlink" x="0px" y="0px"
	 viewBox="0 0 100 100" style="enable-background:new 0 0 100 100;" xml:space="preserve">
<style type="text/css">
	.st0{fill:#FFFFFF;}
</style>
<g>
	<path class="st0" d="M84,49.6c0,0.3-0.1,0.7-0.4,0.9c-0.3,0.3-0.5,0.4-0.9,0.4c-0.3,0-0.6-0.1-1-0.4c-1.4-1.2-2.6-2.2-3.8-2.8
		c-1.2-0.6-2.6-1-4.2-1c-1.8,0-3.6,0.5-5.3,1.5c-1.6,1-3,2.3-4.2,4c-0.2,0.3-0.4,0.7-0.7,1.2s-0.5,0.8-0.6,1
		c-0.3,0.5-0.7,0.7-1.2,0.7s-0.9-0.2-1.2-0.7c-0.1-0.1-0.3-0.5-0.6-1s-0.5-0.9-0.7-1.2c-1.2-1.6-2.5-2.9-4.2-4
		c-1.6-1-3.3-1.5-5.2-1.5s-3.6,0.5-5.2,1.5c-1.6,1-3,2.3-4.2,4c-0.2,0.3-0.4,0.7-0.7,1.2s-0.5,0.8-0.6,1c-0.1,0.4-0.5,0.6-1,0.6
		s-0.8-0.2-1.2-0.7c-0.1-0.1-0.3-0.5-0.6-1s-0.5-0.9-0.7-1.2c-1.2-1.6-2.6-2.9-4.2-4s-3.3-1.5-5.3-1.5c-1.6,0-2.9,0.3-4.2,1
		s-2.5,1.6-3.8,2.8c-0.3,0.3-0.6,0.4-1,0.4s-0.7-0.1-0.9-0.4c-0.3-0.3-0.4-0.5-0.4-0.9c0-0.1,0-0.2,0.1-0.3c1.2-5,3.6-9.4,7-13
		s7.5-6.5,12.2-8.3s9.6-2.8,14.8-2.8c3.8,0,7.6,0.5,11.2,1.6c3.7,1.1,7,2.7,10.1,4.6c3.1,2,5.7,4.6,7.9,7.7
		c2.3,3.1,3.8,6.5,4.7,10.3C84,49.4,84,49.5,84,49.6z M52.6,48.5v23.7c0,2.8-1,5.3-3.1,7.4c-2,2-4.5,3.1-7.4,3.1s-5.3-1-7.4-3.1
		c-2-2-3.1-4.5-3.1-7.4c0-0.7,0.3-1.3,0.8-1.8c0.5-0.5,1.2-0.8,1.8-0.8s1.3,0.3,1.8,0.8s0.8,1.2,0.8,1.8c0,1.4,0.5,2.6,1.6,3.6
		c1.1,1.1,2.3,1.6,3.6,1.6c1.4,0,2.6-0.5,3.6-1.6c1.1-1.1,1.6-2.3,1.6-3.6V48.5c0.9-0.3,1.8-0.5,2.6-0.5S51.7,48.2,52.6,48.5z
		 M52.6,19.9v4c-1.2-0.1-2-0.1-2.6-0.1s-1.5,0-2.6,0.1v-4c0-0.7,0.3-1.3,0.8-1.8s1.2-0.8,1.8-0.8s1.3,0.3,1.8,0.8
		S52.6,19.2,52.6,19.9z"/>
</g>
</svg>
