<?xml version="1.0" encoding="utf-8"?>
<!-- Generator: Adobe Illustrator 20.0.0, SVG Export Plug-In . SVG Version: 6.00 Build 0)  -->
<svg version="1.1" id="Layer_1" xmlns="http://www.w3.org/2000/svg" xmlns:xlink="http://www.w3.org/1999/xlink" x="0px" y="0px"
	 viewBox="0 0 100 100" style="enable-background:new 0 0 100 100;" xml:space="preserve">
<g>
	<path d="M60.9,56L21,95.9c-1.5,1.4-3.2,2.2-5.3,2.2c-2,0-3.8-0.7-5.3-2.2l-6.2-6.3C2.7,88.2,2,86.4,2,84.3c0-2.1,0.7-3.8,2.2-5.3
		l39.8-39.8c1.5,3.8,3.8,7.2,6.7,10.2C53.7,52.2,57.1,54.5,60.9,56z M22.1,83.2c0.7-0.7,1.1-1.6,1.1-2.6c0-1-0.4-1.9-1.1-2.6
		c-0.7-0.7-1.6-1.1-2.6-1.1s-1.9,0.4-2.6,1.1c-0.7,0.8-1.1,1.6-1.1,2.6c0,1,0.4,1.9,1.1,2.6c0.7,0.7,1.6,1.1,2.6,1.1
		S21.4,83.9,22.1,83.2z M98,30.5c0,1.5-0.5,3.6-1.3,6.2c-1.8,5.2-5,9.5-9.6,12.7c-4.6,3.3-9.6,4.9-15.1,4.9
		c-7.2,0-13.4-2.6-18.5-7.7c-5.1-5.1-7.7-11.3-7.7-18.5c0-7.2,2.6-13.4,7.7-18.5s11.3-7.7,18.5-7.7c2.3,0,4.6,0.3,7.1,1
		c2.5,0.6,4.6,1.6,6.3,2.7c0.6,0.4,0.9,1,0.9,1.6c0,0.7-0.3,1.2-0.9,1.6l-17.1,9.9v13.1l11.3,6.3c0.2-0.1,1.7-1.1,4.6-2.8
		c2.9-1.8,5.5-3.4,7.9-4.7c2.4-1.4,3.8-2.1,4.1-2.1c0.6,0,1,0.2,1.4,0.6C97.8,29.5,98,30,98,30.5z"/>
</g>
</svg>
