<?xml version="1.0" encoding="utf-8"?>
<!-- Generator: Adobe Illustrator 20.0.0, SVG Export Plug-In . SVG Version: 6.00 Build 0)  -->
<svg version="1.1" id="Layer_1" xmlns="http://www.w3.org/2000/svg" xmlns:xlink="http://www.w3.org/1999/xlink" x="0px" y="0px"
	 viewBox="0 0 100 100" style="enable-background:new 0 0 100 100;" xml:space="preserve">
<style type="text/css">
	.st0{fill:#FFFFFF;}
</style>
<g>
	<path class="st0" d="M58,54.4L28.7,83.7c-1.1,1-2.3,1.6-3.9,1.6c-1.5,0-2.8-0.5-3.9-1.6l-4.6-4.6c-1.1-1-1.6-2.3-1.6-3.9
		c0-1.5,0.5-2.8,1.6-3.9l29.2-29.2c1.1,2.8,2.8,5.3,4.9,7.5C52.7,51.6,55.2,53.3,58,54.4z M29.5,74.4c0.5-0.5,0.8-1.2,0.8-1.9
		s-0.3-1.4-0.8-1.9s-1.2-0.8-1.9-0.8c-0.7,0-1.4,0.3-1.9,0.8c-0.5,0.6-0.8,1.2-0.8,1.9s0.3,1.4,0.8,1.9s1.2,0.8,1.9,0.8
		C28.4,75.2,29,74.9,29.5,74.4z M85.2,35.7c0,1.1-0.4,2.6-1,4.6c-1.3,3.8-3.7,7-7,9.3c-3.4,2.4-7,3.6-11.1,3.6
		c-5.3,0-9.8-1.9-13.6-5.7c-3.7-3.7-5.7-8.3-5.7-13.6s1.9-9.8,5.7-13.6s8.3-5.7,13.6-5.7c1.7,0,3.4,0.2,5.2,0.7
		c1.8,0.4,3.4,1.2,4.6,2c0.4,0.3,0.7,0.7,0.7,1.2s-0.2,0.9-0.7,1.2L63.4,27v9.6l8.3,4.6c0.1-0.1,1.2-0.8,3.4-2.1
		c2.1-1.3,4-2.5,5.8-3.4c1.8-1,2.8-1.5,3-1.5c0.4,0,0.7,0.1,1,0.4C85.1,35,85.2,35.3,85.2,35.7z"/>
</g>
</svg>
