<?xml version="1.0" encoding="utf-8"?>
<!-- Generator: Adobe Illustrator 20.0.0, SVG Export Plug-In . SVG Version: 6.00 Build 0)  -->
<svg version="1.1" id="Layer_1" xmlns="http://www.w3.org/2000/svg" xmlns:xlink="http://www.w3.org/1999/xlink" x="0px" y="0px"
	 viewBox="0 0 100 100" style="enable-background:new 0 0 100 100;" xml:space="preserve">
<style type="text/css">
	.st0{fill:#FFFFFF;}
</style>
<g>
	<path class="st0" d="M71.3,79.3c2.4-0.6,4.2-3,5.1-5.2c1.5-3.5,0-5.7-2.3-8.5c-2.1-2.5-4.4-4.4-6-7.2c-1.6-2.7-3.1-5.1-4.6-7.8
		c-3.1-5.2-5.5-10.8-8.9-15.8c-3.2-4.6-7.3-10.6-12.5-12.9c-5.6-2.5-10.6-1.3-14.5,3.1c-0.9,1-6.1,5.8-4.1,6.8
		c1.9,0.9,6.2-4.4,7.7-5.4c0.7-0.5,1.5-0.6,2.2-0.7l3.7-3.1l0.4,0.5l-3.2,2.6c0.5,0.1,1,0.2,1.5,0.4l2.5-2.1l0.4,0.5l-2.2,1.9
		c0.4,0.2,0.8,0.4,1.2,0.6l1.8-1.5l0.4,0.5l-1.6,1.4c0.4,0.2,0.7,0.5,1,0.7l1.4-1.2l0.4,0.5l-1.4,1.1c0.3,0.2,0.6,0.5,0.9,0.8
		l1.2-0.9l0.4,0.5l-1.1,0.9c0.3,0.3,0.6,0.6,0.9,0.8l1-0.8l0.4,0.5L42.5,31c0.3,0.3,0.6,0.6,0.9,0.9l0.9-0.7l0.4,0.5l-0.8,0.7
		c0.3,0.3,0.6,0.6,0.8,0.9l0.8-0.6l0.4,0.5l-0.7,0.6c0.3,0.3,0.5,0.6,0.8,0.9l0.6-0.5l0.4,0.5l-0.6,0.5c0.3,0.3,0.5,0.6,0.8,0.9
		l0.6-0.5l0.4,0.5l-0.6,0.5c0.2,0.3,0.5,0.6,0.8,0.9L49,37l0.4,0.5L48.7,38c0.2,0.4,0.5,0.6,0.7,1l0.8-0.6l0.4,0.5l-0.8,0.6
		c0.2,0.2,0.3,0.4,0.4,0.6l0.9-0.7l0.4,0.5l-0.9,0.8c0.2,0.4,0.4,0.7,0.6,1.1l1.1-0.9l0.4,0.5l-1.1,0.9c0.2,0.4,0.4,0.7,0.6,1.1
		l1.4-0.9L54,43l-1.4,1.1c0.2,0.4,0.4,0.7,0.6,1.1l1.5-1.2l0.4,0.5l-1.6,1.3c0.2,0.4,0.4,0.7,0.6,1.1l1.8-1.5l0.4,0.5l-1.8,1.5
		c0.2,0.4,0.4,0.7,0.6,1.1l2.1-1.7l0.4,0.5l-2.1,1.8c0.2,0.4,0.4,0.8,0.5,1.2l2.4-2l0.4,0.5L56,50.6c0.1,1.1-0.5,2-2,3.3
		c-1.8,1.6-3.9,3-5.9,4.6c-1.6,1.2,0.4,2.5,1.5,2.4c1.4-0.1,2.8-1.2,4.3-1.4c3.1-0.4,6.1,1.6,7.6,4.1c2.5,4.1,0.6,14,6.6,15.5
		c0.5-0.1,1.1-0.2,1.6-0.2C70.4,79.1,70.9,79.2,71.3,79.3z"/>
	<polygon class="st0" points="37.2,22.7 33.5,25.8 25.8,32.2 26.2,32.6 34.4,25.8 37.6,23.2 	"/>
	<polygon class="st0" points="38.4,24.1 35.9,26.2 27,33.6 27.4,34.1 36.5,26.5 38.8,24.6 	"/>
	<polygon class="st0" points="39.5,25.6 37.7,27.1 28.2,35 28.6,35.5 38.3,27.5 39.9,26 	"/>
	<polygon class="st0" points="40.7,27 39.3,28.2 29.4,36.5 29.8,36.9 39.8,28.6 41.1,27.5 	"/>
	<polygon class="st0" points="41.9,28.4 40.8,29.4 30.5,37.9 30.9,38.3 41.2,29.8 42.3,28.9 	"/>
	<polygon class="st0" points="43.1,29.8 42.1,30.6 31.7,39.3 32.1,39.8 42.6,31.1 43.5,30.3 	"/>
	<polygon class="st0" points="44.3,31.3 43.4,32 32.9,40.7 33.4,41.2 43.9,32.5 44.7,31.8 	"/>
	<polygon class="st0" points="45.5,32.7 44.7,33.3 34.1,42.2 34.5,42.6 45.2,33.8 45.9,33.2 	"/>
	<polygon class="st0" points="46.6,34.1 46,34.7 35.3,43.6 35.7,44 46.4,35.2 47.1,34.6 	"/>
	<polygon class="st0" points="47.8,35.5 47.2,36 36.5,45 36.9,45.5 47.6,36.6 48.2,36 	"/>
	<polygon class="st0" points="49.1,37 48.4,37.5 37.6,46.5 38.1,46.9 48.8,38 49.4,37.5 	"/>
	<polygon class="st0" points="50.2,38.4 49.5,39 38.9,47.9 39.2,48.3 49.8,39.5 50.6,38.9 	"/>
	<polygon class="st0" points="51.1,39.5 50.3,40.2 39.8,48.9 40.2,49.4 50.6,40.7 51.5,39.9 	"/>
	<polygon class="st0" points="52.4,40.9 51.3,41.8 40.9,50.3 41.4,50.8 51.6,42.3 52.8,41.4 	"/>
	<polygon class="st0" points="53.5,42.3 52.2,43.3 42.2,51.8 42.6,52.3 52.6,43.9 53.9,42.8 	"/>
	<polygon class="st0" points="54.7,43.8 53.2,45 43.4,53.2 43.8,53.7 53.5,45.5 55.1,44.2 	"/>
	<polygon class="st0" points="55.9,45.2 54.1,46.6 44.5,54.6 44.9,55.1 54.5,47.2 56.3,45.6 	"/>
	<polygon class="st0" points="57.1,46.6 55.1,48.3 45.7,56 46.1,56.5 55.4,48.9 57.5,47.1 	"/>
	<polygon class="st0" points="58.3,48 55.8,50 46.9,57.5 47.3,58 56,50.8 58.6,48.5 	"/>
</g>
</svg>
