<?xml version="1.0" encoding="utf-8"?>
<!-- Generator: Adobe Illustrator 20.0.0, SVG Export Plug-In . SVG Version: 6.00 Build 0)  -->
<svg version="1.1" id="Layer_1" xmlns="http://www.w3.org/2000/svg" xmlns:xlink="http://www.w3.org/1999/xlink" x="0px" y="0px"
	 viewBox="0 0 100 100" style="enable-background:new 0 0 100 100;" xml:space="preserve">
<g>
	<path d="M86.2,99.8c4.1-1.1,7.2-5.1,8.7-8.8c2.5-5.9,0-9.7-3.9-14.4c-3.5-4.3-7.4-7.5-10.2-12.2c-2.8-4.6-5.2-8.7-7.9-13.3
		c-5.2-8.9-9.4-18.3-15.2-26.8c-5.4-7.9-12.4-18-21.2-22C27-1.9,18.4,0.1,11.8,7.6c-1.5,1.7-10.4,9.9-6.9,11.5
		c3.3,1.5,10.5-7.5,13.1-9.1c1.2-0.8,2.5-1.1,3.8-1.2l6.3-5.2l0.7,0.8l-5.4,4.5C24.3,9,25.1,9.2,26,9.5L30.2,6l0.7,0.8L27.1,10
		c0.7,0.3,1.3,0.7,2,1l3.1-2.6l0.7,0.8l-2.8,2.4c0.6,0.4,1.2,0.8,1.7,1.2l2.4-2l0.7,0.8l-2.3,1.9c0.5,0.4,1.1,0.9,1.6,1.4l2-1.6
		l0.7,0.8l-1.9,1.6c0.5,0.5,1,1,1.5,1.4l1.7-1.4l0.7,0.8l-1.6,1.3c0.5,0.5,1,1,1.5,1.5l1.5-1.2L41,19l-1.4,1.2c0.5,0.5,1,1,1.4,1.5
		l1.3-1.1l0.7,0.8l-1.2,1c0.5,0.5,0.9,1,1.4,1.5l1.1-0.9l0.7,0.8l-1.1,0.9c0.5,0.5,0.9,1.1,1.3,1.6l1.1-0.9l0.7,0.8l-1.1,0.9
		c0.4,0.5,0.9,1.1,1.3,1.6l1.1-0.9l0.7,0.8l-1.2,1c0.4,0.6,0.8,1.1,1.2,1.7l1.3-1.1l0.7,0.8l-1.4,1.1c0.3,0.4,0.5,0.7,0.7,1.1
		l1.5-1.2l0.7,0.8l-1.6,1.3c0.4,0.6,0.7,1.2,1.1,1.8l1.8-1.5l0.7,0.8l-1.9,1.6c0.4,0.6,0.7,1.2,1.1,1.8L56,37l0.7,0.8l-2.3,1.9
		c0.4,0.6,0.7,1.2,1.1,1.8l2.5-2.1l0.7,0.8L56,42.4c0.3,0.6,0.7,1.2,1,1.8l3-2.5l0.7,0.8l-3.1,2.6c0.3,0.6,0.7,1.2,1,1.9l3.5-2.9
		l0.7,0.8l-3.6,3c0.4,0.7,0.7,1.4,0.8,2l4.1-3.4l0.7,0.8l-4.6,3.8c0.2,1.9-0.9,3.4-3.4,5.6c-3.1,2.8-6.7,5.1-10,7.8
		c-2.8,2.1,0.7,4.2,2.6,4.1c2.3-0.1,4.8-2,7.3-2.3c5.2-0.6,10.3,2.7,13,7c4.3,6.9,1,23.8,11.3,26.3c0.8-0.2,1.8-0.3,2.8-0.3
		C84.7,99.5,85.5,99.6,86.2,99.8z"/>
	<polygon points="28.2,3.6 21.9,8.9 8.9,19.7 9.5,20.5 23.5,8.9 28.9,4.4 	"/>
	<polygon points="30.2,6 26,9.5 10.9,22.1 11.6,23 27.1,10 30.9,6.9 	"/>
	<polygon points="32.2,8.5 29.1,11.1 12.9,24.5 13.6,25.4 30.1,11.7 32.9,9.3 	"/>
	<polygon points="34.2,10.9 31.8,12.9 14.9,27 15.6,27.8 32.7,13.6 34.9,11.7 	"/>
	<polygon points="36.2,13.3 34.3,15 16.9,29.4 17.6,30.2 35.1,15.7 36.9,14.1 	"/>
	<polygon points="38.3,15.7 36.6,17.1 18.9,31.8 19.6,32.7 37.4,17.9 39,16.6 	"/>
	<polygon points="40.3,18.2 38.8,19.4 21,34.2 21.7,35.1 39.6,20.2 41,19 	"/>
	<polygon points="42.3,20.6 41,21.7 23,36.7 23.7,37.5 41.8,22.4 43,21.4 	"/>
	<polygon points="44.3,23 43.2,24 25,39.1 25.7,39.9 43.9,24.8 45,23.8 	"/>
	<polygon points="46.3,25.4 45.3,26.3 27,41.5 27.7,42.4 45.9,27.2 47,26.3 	"/>
	<polygon points="48.4,27.9 47.2,28.8 29,44 29.7,44.8 47.9,29.7 49,28.7 	"/>
	<polygon points="50.4,30.3 49.1,31.4 31.1,46.4 31.7,47.2 49.7,32.2 51.1,31.1 	"/>
	<polygon points="51.9,32.1 50.5,33.3 32.6,48.2 33.3,49 51.1,34.2 52.6,32.9 	"/>
	<polygon points="54,34.5 52.2,36 34.6,50.6 35.3,51.4 52.8,36.9 54.7,35.4 	"/>
	<polygon points="56,37 53.8,38.7 36.7,53 37.4,53.9 54.4,39.7 56.7,37.8 	"/>
	<polygon points="58,39.4 55.5,41.5 38.7,55.5 39.4,56.3 56,42.4 58.7,40.2 	"/>
	<polygon points="60,41.8 57,44.3 40.7,57.9 41.4,58.7 57.6,45.3 60.7,42.6 	"/>
	<polygon points="62,44.2 58.6,47.1 42.7,60.3 43.4,61.1 59.1,48.1 62.7,45.1 	"/>
	<polygon points="64.1,46.7 59.9,50.1 44.7,62.7 45.4,63.6 60.2,51.3 64.7,47.5 	"/>
</g>
</svg>
