<?xml version="1.0" encoding="utf-8"?>
<!-- Generator: Adobe Illustrator 20.0.0, SVG Export Plug-In . SVG Version: 6.00 Build 0)  -->
<svg version="1.1" id="Layer_1" xmlns="http://www.w3.org/2000/svg" xmlns:xlink="http://www.w3.org/1999/xlink" x="0px" y="0px"
	 viewBox="0 0 100 100" style="enable-background:new 0 0 100 100;" xml:space="preserve">
<style type="text/css">
	.st0{fill:#FFFFFF;}
</style>
<path class="st0" d="M78,47.2l-13.3,0.1V26.5l-5-5l-19.9,0.1l-5.5,4.9v20.9l-11.7,0.1L17,52.3v26.3h30.4V52.8h5.1v25.9H83V52.3
	L78,47.2z M35.4,73.1h-3.7v-13h-0.1l-3.1,1.5l-0.7-2.8l4.4-2h3.2C35.4,56.7,35.4,73.1,35.4,73.1z M43.7,47.9l0.8-2.8
	c0.7,0.3,2.2,1,3.8,1c2,0,3-0.9,3-2.2c0-1.6-1.6-2.3-3.3-2.3h-1.6v-2.8h1.5c1.3,0,2.9-0.5,2.9-1.9c0-1-0.8-1.7-2.4-1.7
	c-1.3,0-2.8,0.6-3.4,1l-0.8-2.8c1-0.7,3-1.3,5.1-1.3c3.5,0,5.4,1.8,5.4,4.1c0,1.7-1,3.1-3,3.8v0.1c2,0.3,3.6,1.8,3.6,4
	c0,2.9-2.5,5-6.7,5C46.4,49,44.7,48.5,43.7,47.9z M74.5,73.1H62.9v-2.3l2.1-1.9c3.6-3.2,5.3-5,5.3-6.9c0-1.3-0.8-2.4-2.7-2.4
	c-1.4,0-2.6,0.7-3.5,1.4L63,58.2c1.3-0.9,3.2-1.7,5.3-1.7c3.7,0,5.7,2.2,5.7,5.1c0,2.8-2,4.9-4.4,7.1L68.1,70v0.1h6.1L74.5,73.1
	L74.5,73.1z"/>
</svg>
