<?xml version="1.0" encoding="utf-8"?>
<!-- Generator: Adobe Illustrator 20.0.0, SVG Export Plug-In . SVG Version: 6.00 Build 0)  -->
<svg version="1.1" id="Layer_1" xmlns="http://www.w3.org/2000/svg" xmlns:xlink="http://www.w3.org/1999/xlink" x="0px" y="0px"
	 viewBox="0 0 100 100" style="enable-background:new 0 0 100 100;" xml:space="preserve">
<path d="M92.4,45.8L72.2,46V14.3l-7.6-7.6L34.4,6.9l-8.3,7.4v31.7L8.3,46.1L0,53.4v39.9h46.1V54.2h7.8v39.2H100V53.4L92.4,45.8z
	 M27.9,84.9h-5.6V65.3h-0.1l-4.7,2.2l-1-4.3l6.6-3h4.8V84.9z M40.4,46.8l1.2-4.3c1,0.5,3.4,1.5,5.8,1.5c3,0,4.5-1.4,4.5-3.3
	c0-2.4-2.4-3.5-5-3.5h-2.4V33h2.2c1.9,0,4.4-0.8,4.4-2.9c0-1.5-1.2-2.6-3.7-2.6c-2,0-4.2,0.9-5.2,1.5l-1.2-4.2
	c1.5-1,4.5-1.9,7.7-1.9c5.3,0,8.2,2.8,8.2,6.2c0,2.6-1.5,4.7-4.5,5.8v0.1c3,0.5,5.4,2.8,5.4,6c0,4.4-3.8,7.6-10.1,7.6
	C44.6,48.5,41.9,47.7,40.4,46.8z M87.1,84.9H69.5v-3.5l3.2-2.9c5.4-4.8,8-7.6,8.1-10.5c0-2-1.2-3.6-4.1-3.6c-2.1,0-4,1.1-5.3,2.1
	l-1.6-4.2c1.9-1.4,4.8-2.6,8.1-2.6c5.6,0,8.7,3.3,8.7,7.8c0,4.2-3,7.5-6.6,10.7l-2.3,1.9v0.1h9.3V84.9z"/>
</svg>
