<?xml version="1.0" encoding="utf-8"?>
<!-- Generator: Adobe Illustrator 20.0.0, SVG Export Plug-In . SVG Version: 6.00 Build 0)  -->
<svg version="1.1" id="Layer_1" xmlns="http://www.w3.org/2000/svg" xmlns:xlink="http://www.w3.org/1999/xlink" x="0px" y="0px"
	 viewBox="0 0 100 100" style="enable-background:new 0 0 100 100;" xml:space="preserve">
<style type="text/css">
	.st0{fill:#FFFFFF;}
</style>
<g>
	<path class="st0" d="M75.9,24.1c1.1,1.3,1.3,3.2,0.5,5.7c-0.8,2.4-2.2,4.6-4.1,6.6L66,42.5l6.1,26.7c0.1,0.5,0,0.9-0.5,1.3
		l-4.9,3.7c-0.2,0.2-0.4,0.2-0.7,0.2c-0.1,0-0.2,0-0.3-0.1c-0.4-0.1-0.6-0.3-0.8-0.6L54.3,54.3l-10,9.9l2.1,7.4
		c0.1,0.4,0.1,0.8-0.3,1.2l-3.7,3.7c-0.2,0.2-0.5,0.4-0.9,0.4h-0.1c-0.4-0.1-0.7-0.2-0.9-0.5l-7.2-9.7l-9.7-7.3
		c-0.3-0.2-0.4-0.5-0.5-0.9c0-0.3,0.1-0.6,0.4-1l3.7-3.8c0.2-0.2,0.5-0.3,0.9-0.3c0.2,0,0.3,0,0.3,0.1l7.4,2l9.9-9.9L26.2,35
		c-0.4-0.2-0.6-0.5-0.6-0.9c-0.1-0.4,0.1-0.7,0.4-1.1l4.9-4.9c0.4-0.3,0.7-0.4,1.2-0.3l25.5,6.1l6.1-6.1c2-2,4.1-3.3,6.6-4.1
		C72.6,22.8,74.5,23,75.9,24.1z"/>
</g>
</svg>
