<?xml version="1.0" encoding="utf-8"?>
<!-- Generator: Adobe Illustrator 20.0.0, SVG Export Plug-In . SVG Version: 6.00 Build 0)  -->
<svg version="1.1" id="Layer_1" xmlns="http://www.w3.org/2000/svg" xmlns:xlink="http://www.w3.org/1999/xlink" x="0px" y="0px"
	 viewBox="0 0 100 100" style="enable-background:new 0 0 100 100;" xml:space="preserve">
<g>
	<path d="M99,0.9c2.1,2.5,2.4,6.1,0.9,10.8c-1.6,4.6-4.2,8.8-7.8,12.5L80.4,35.9L92,86.4c0.2,0.9,0,1.7-0.9,2.4l-9.3,7
		c-0.3,0.3-0.8,0.4-1.4,0.4c-0.2,0-0.4,0-0.5-0.1c-0.7-0.1-1.2-0.5-1.5-1.2L58.2,58.1L39.3,76.9L43.2,91c0.2,0.8,0.1,1.6-0.6,2.2
		l-7,7c-0.4,0.4-1,0.7-1.7,0.7h-0.1c-0.7-0.1-1.3-0.4-1.7-0.9L18.4,81.7L0,67.9c-0.5-0.3-0.8-0.9-0.9-1.7c0-0.6,0.2-1.2,0.7-1.8
		l7-7.1c0.4-0.4,1-0.6,1.7-0.6c0.3,0,0.5,0,0.6,0.1l14.1,3.8l18.8-18.8L5,21.6c-0.7-0.4-1.1-1-1.2-1.7c-0.1-0.8,0.1-1.4,0.7-2
		l9.3-9.3c0.7-0.6,1.4-0.8,2.2-0.6l48.3,11.5L75.8,7.9c3.7-3.7,7.8-6.3,12.5-7.8C92.9-1.5,96.5-1.2,99,0.9z"/>
</g>
</svg>
