<?xml version="1.0" encoding="utf-8"?>
<!-- Generator: Adobe Illustrator 20.0.0, SVG Export Plug-In . SVG Version: 6.00 Build 0)  -->
<svg version="1.1" id="Layer_1" xmlns="http://www.w3.org/2000/svg" xmlns:xlink="http://www.w3.org/1999/xlink" x="0px" y="0px"
	 viewBox="0 0 100 100" style="enable-background:new 0 0 100 100;" xml:space="preserve">
<g>
	<path d="M47.7,58.6c0,0.9,0.3,1.6,1,2.2c0.6,0.6,1.4,1,2.2,1h6.3v5.8c-1.1,0.8-2.5,1.2-4.2,1.2H31.5c-2,0-3.6-0.6-4.8-1.7
		C25.5,66,25,64.4,25,62.5c0-0.9,0.1-1.7,0.1-2.6s0.2-1.7,0.4-2.7c0.2-1,0.4-1.9,0.7-2.7c0.3-0.8,0.6-1.6,1.1-2.4
		c0.5-0.8,1-1.5,1.5-2c0.6-0.6,1.3-1,2.1-1.3c0.8-0.3,1.8-0.5,2.8-0.5c0.3,0,0.6,0.2,1,0.4c1.3,1,2.6,1.8,3.8,2.3
		c1.3,0.5,2.6,0.8,4,0.8s2.8-0.3,4-0.8c1.3-0.5,2.5-1.3,3.8-2.3c0.3-0.3,0.7-0.4,1-0.4c2.2,0,3.9,0.8,5.3,2.4h-5.5
		c-0.9,0-1.6,0.3-2.2,1s-1,1.4-1,2.2C47.7,53.9,47.7,58.6,47.7,58.6z M48.8,47.2C47,49.1,44.8,50,42.2,50c-2.6,0-4.8-0.9-6.7-2.8
		c-1.9-1.9-2.8-4.1-2.8-6.7c0-2.6,0.9-4.8,2.8-6.7c1.9-1.9,4.1-2.8,6.7-2.8s4.8,0.9,6.7,2.8c1.9,1.9,2.8,4.1,2.8,6.7
		C51.6,43.2,50.7,45.4,48.8,47.2z M65.7,53.2h8.6c0.2,0,0.4,0.1,0.6,0.3c0.2,0.2,0.3,0.4,0.3,0.6v4.7c0,0.2-0.1,0.4-0.3,0.6
		c-0.2,0.2-0.4,0.3-0.6,0.3h-8.6v8.6c0,0.2-0.1,0.4-0.3,0.6c-0.2,0.2-0.4,0.3-0.6,0.3h-4.7c-0.2,0-0.4-0.1-0.6-0.3
		c-0.2-0.2-0.3-0.4-0.3-0.6v-8.6h-8.6c-0.2,0-0.4-0.1-0.6-0.3C50.1,59,50,58.8,50,58.6v-4.7c0-0.2,0.1-0.4,0.3-0.6
		c0.2-0.2,0.4-0.3,0.6-0.3h8.6v-8.6c0-0.2,0.1-0.4,0.3-0.6c0.2-0.2,0.4-0.3,0.6-0.3H65c0.2,0,0.4,0.1,0.6,0.3
		c0.2,0.2,0.3,0.4,0.3,0.6L65.7,53.2L65.7,53.2z"/>
</g>
</svg>
