<?xml version="1.0" encoding="utf-8"?>
<!-- Generator: Adobe Illustrator 20.0.0, SVG Export Plug-In . SVG Version: 6.00 Build 0)  -->
<svg version="1.1" id="Layer_1" xmlns="http://www.w3.org/2000/svg" xmlns:xlink="http://www.w3.org/1999/xlink" x="0px" y="0px"
	 viewBox="0 0 100 100" style="enable-background:new 0 0 100 100;" xml:space="preserve">
<style type="text/css">
	.st0{fill:#FFFFFF;}
</style>
<g>
	<path class="st0" d="M66.9,60.5c0,3.7-1.2,6.9-3.6,9.6s-5.5,4.3-9.4,4.9v6.4c0,0.3-0.1,0.6-0.3,0.9c-0.2,0.2-0.5,0.3-0.9,0.3h-4.9
		c-0.3,0-0.6-0.1-0.8-0.3c-0.3-0.3-0.3-0.5-0.3-0.8v-6.4c-1.6-0.2-3.1-0.6-4.6-1.1c-1.4-0.5-2.7-1-3.7-1.6c-1-0.5-1.8-1.1-2.7-1.8
		c-0.9-0.6-1.4-1-1.7-1.4c-0.3-0.3-0.5-0.5-0.7-0.7C33,68,33,67.5,33.4,67l3.7-4.9c0.2-0.3,0.5-0.4,0.9-0.5s0.7,0.1,0.9,0.3L39,62
		c2.8,2.4,5.6,3.9,8.8,4.5c0.9,0.2,1.8,0.3,2.7,0.3c2,0,3.7-0.5,5.2-1.6s2.2-2.5,2.2-4.4c0-0.7-0.2-1.3-0.5-1.9
		c-0.4-0.6-0.8-1.1-1.2-1.5C55.7,57,55,56.5,54.1,56c-1-0.5-1.8-0.9-2.4-1.2c-0.7-0.3-1.6-0.7-2.9-1.2c-0.9-0.4-1.7-0.7-2.2-0.9
		s-1.3-0.5-2.2-1c-0.9-0.4-1.7-0.8-2.3-1.1s-1.2-0.8-2-1.3s-1.4-1-2-1.5c-0.5-0.5-1-1.1-1.6-1.8c-0.5-0.7-1-1.4-1.3-2.1
		s-0.5-1.5-0.8-2.4c-0.2-0.9-0.3-1.8-0.3-2.8c0-3.3,1.2-6.2,3.5-8.8c2.4-2.5,5.4-4.1,9.2-4.8v-6.4c0-0.3,0.1-0.6,0.3-0.8
		c0.3-0.3,0.5-0.3,0.8-0.3h4.9c0.3,0,0.6,0.1,0.9,0.3c0.2,0.1,0.3,0.5,0.3,0.8v6.4c1.4,0.1,2.7,0.4,4,0.9c1.3,0.4,2.4,0.8,3.1,1.2
		s1.6,0.9,2.3,1.4s1.2,0.9,1.4,1c0.2,0.2,0.4,0.4,0.5,0.5c0.4,0.5,0.5,0.9,0.2,1.4l-2.9,5.3c-0.2,0.4-0.5,0.5-0.9,0.6
		c-0.3,0.1-0.7,0-1-0.3c-0.1-0.1-0.3-0.2-0.5-0.5c-0.3-0.2-0.7-0.5-1.4-1c-0.7-0.4-1.4-0.8-2.1-1.2C56,34.2,55,33.9,54,33.6
		c-1-0.3-2.1-0.4-3.1-0.4c-2.3,0-4.2,0.5-5.6,1.6c-1.4,1-2.2,2.4-2.2,4c0,0.7,0.1,1.2,0.3,1.7s0.6,1,1,1.5c0.5,0.5,1,0.9,1.4,1.2
		s1.1,0.7,2,1.1c0.9,0.4,1.6,0.7,2.2,1c0.5,0.3,1.4,0.6,2.6,1c1.2,0.5,2.2,0.9,2.9,1.1c0.7,0.3,1.6,0.7,2.8,1.2
		c1.2,0.6,2.1,1,2.8,1.5s1.4,1,2.2,1.8c0.9,0.7,1.4,1.5,1.9,2.3s0.9,1.7,1.1,2.8C66.7,58.2,66.9,59.3,66.9,60.5z"/>
</g>
</svg>
