<?xml version="1.0" encoding="utf-8"?>
<!-- Generator: Adobe Illustrator 20.0.0, SVG Export Plug-In . SVG Version: 6.00 Build 0)  -->
<svg version="1.1" id="Layer_1" xmlns="http://www.w3.org/2000/svg" xmlns:xlink="http://www.w3.org/1999/xlink" x="0px" y="0px"
	 viewBox="0 0 100 100" style="enable-background:new 0 0 100 100;" xml:space="preserve">
<style type="text/css">
	.st0{fill:#FFFFFF;}
</style>
<g>
	<path class="st0" d="M50,27.6l24,9.6v3.2h-3.2c0,0.4-0.2,0.8-0.5,1.1S69.6,42,69.1,42H30.9c-0.5,0-0.9-0.1-1.2-0.5
		c-0.3-0.3-0.5-0.7-0.5-1.1H26v-3.2L50,27.6z M72.3,67.6c0.5,0,0.9,0.1,1.2,0.5c0.3,0.3,0.5,0.7,0.5,1.1v3.2H26v-3.2
		c0-0.4,0.2-0.8,0.5-1.1c0.3-0.3,0.7-0.5,1.2-0.5H72.3z M32.4,43.6h6.4v19.2H42V43.6h6.4v19.2h3.2V43.6H58v19.2h3.2V43.6h6.4v19.2
		h1.5c0.5,0,0.9,0.1,1.2,0.5c0.3,0.3,0.5,0.7,0.5,1.1V66H29.2v-1.6c0-0.4,0.2-0.8,0.5-1.1s0.8-0.5,1.2-0.5h1.5V43.6L32.4,43.6z"/>
</g>
</svg>
