<?xml version="1.0" encoding="utf-8"?>
<!-- Generator: Adobe Illustrator 20.0.0, SVG Export Plug-In . SVG Version: 6.00 Build 0)  -->
<svg version="1.1" id="Layer_1" xmlns="http://www.w3.org/2000/svg" xmlns:xlink="http://www.w3.org/1999/xlink" x="0px" y="0px"
	 viewBox="0 0 100 100" style="enable-background:new 0 0 100 100;" xml:space="preserve">
<g>
	<path d="M50,3.4l49.9,20V30h-6.7c0,0.9-0.4,1.7-1.1,2.3c-0.7,0.7-1.5,1-2.5,1H10.3c-1,0-1.8-0.3-2.5-1c-0.7-0.7-1.1-1.4-1.1-2.3
		H0.1v-6.7L50,3.4z M96.3,86.6c1,0,1.8,0.3,2.5,1c0.7,0.7,1.1,1.4,1.1,2.3v6.6H0.1v-6.6c0-0.9,0.4-1.7,1.1-2.3c0.7-0.7,1.5-1,2.5-1
		H96.3z M13.4,36.7h13.3v39.9h6.7V36.7h13.3v39.9h6.7V36.7h13.3v39.9h6.7V36.7h13.3v39.9h3.1c1,0,1.8,0.3,2.5,1
		c0.7,0.7,1.1,1.4,1.1,2.3v3.3H6.8v-3.3c0-0.9,0.4-1.7,1.1-2.3c0.7-0.7,1.6-1,2.5-1h3.1V36.7z"/>
</g>
</svg>
