<?xml version="1.0" encoding="utf-8"?>
<!-- Generator: Adobe Illustrator 20.0.0, SVG Export Plug-In . SVG Version: 6.00 Build 0)  -->
<svg version="1.1" id="Layer_1" xmlns="http://www.w3.org/2000/svg" xmlns:xlink="http://www.w3.org/1999/xlink" x="0px" y="0px"
	 viewBox="0 0 100 100" style="enable-background:new 0 0 100 100;" xml:space="preserve">
<style type="text/css">
	.st0{fill:#FFFFFF;}
</style>
<path class="st0" d="M86.9,22.8v5c0,0.6-0.3,1.3-0.9,1.8s-1.3,0.7-2.2,0.7H16.1c-0.8,0-1.6-0.2-2.2-0.7s-0.9-1-0.9-1.8v-5
	c0-0.6,0.3-1.3,0.9-1.8c0.6-0.5,1.3-0.7,2.2-0.7h67.7c0.8,0,1.5,0.2,2.2,0.7C86.6,21.6,86.9,22.2,86.9,22.8z M86.9,47.4v5
	c0,0.6-0.3,1.3-0.9,1.8s-1.3,0.7-2.2,0.7H16.1c-0.8,0-1.6-0.2-2.2-0.7c-0.6-0.5-0.9-1-0.9-1.8v-5c0-0.6,0.3-1.3,0.9-1.8
	c0.6-0.5,1.3-0.7,2.2-0.7h67.7c0.8,0,1.5,0.2,2.2,0.7C86.6,46.2,86.9,46.8,86.9,47.4z M86.9,72.1v5c0,0.6-0.3,1.3-0.9,1.8
	c-0.6,0.5-1.3,0.7-2.2,0.7H16.1c-0.8,0-1.6-0.2-2.2-0.7c-0.6-0.5-0.9-1-0.9-1.8v-5c0-0.6,0.3-1.3,0.9-1.8c0.6-0.5,1.3-0.7,2.2-0.7
	h67.7c0.8,0,1.5,0.2,2.2,0.7C86.7,70.8,86.9,71.5,86.9,72.1z"/>
</svg>
